<svg width="8" height="5" viewBox="0 0 8 5" fill="none" xmlns="http://www.w3.org/2000/svg">
<g clip-path="url(#clip0_148_1028)">
<path d="M4.24114 4.68542L7.74314 1.0375C7.82514 0.952083 7.86914 0.839583 7.86914 0.720833C7.86914 0.602083 7.82514 0.4875 7.74314 0.404167L7.48514 0.135417C7.31714 -0.0395834 7.04514 -0.0395834 6.87714 0.135417L3.93514 3.2L0.991145 0.13125C0.909145 0.045833 0.801145 -3.08952e-07 0.687145 -3.13935e-07C0.573145 -3.18918e-07 0.463145 0.045833 0.383145 0.13125L0.125145 0.4C0.0431447 0.485416 -0.000854518 0.597916 -0.000854524 0.716666C-0.000854529 0.835416 0.0431447 0.95 0.125145 1.03333L3.62914 4.68542C3.71114 4.77083 3.81914 4.81667 3.93514 4.81667C4.05114 4.81667 4.15914 4.77083 4.24114 4.68542Z" fill="#464451"/>
</g>
<defs>
<clipPath id="clip0_148_1028">
<rect width="5" height="8" fill="white" transform="translate(8) rotate(90)"/>
</clipPath>
</defs>
</svg>
