<svg width="7" height="12" viewBox="0 0 7 12" fill="none" xmlns="http://www.w3.org/2000/svg">
<g clip-path="url(#clip0_148_741)">
<path d="M6.81544 6.36318L1.70836 11.6162C1.58878 11.7392 1.43128 11.8052 1.26503 11.8052C1.09878 11.8052 0.938359 11.7392 0.821693 11.6162L0.445443 11.2292C0.200443 10.9772 0.200443 10.5692 0.445443 10.3172L4.73586 5.90418L0.439609 1.48818C0.320025 1.36518 0.255858 1.20318 0.255858 1.03218C0.255858 0.861176 0.320025 0.696177 0.439608 0.576177L0.815858 0.189177C0.935442 0.0661764 1.09294 0.000177308 1.25919 0.000177293C1.42544 0.000177278 1.58586 0.0661763 1.70253 0.189176L6.81544 5.44518C6.93503 5.56818 6.99919 5.73018 6.99919 5.90418C6.99919 6.07818 6.93503 6.24018 6.81544 6.36318Z" fill="white"/>
</g>
<defs>
<clipPath id="clip0_148_741">
<rect width="7" height="12" fill="white" transform="matrix(-1 0 0 1 7 0)"/>
</clipPath>
</defs>
</svg>
