<svg width="20" height="20" viewBox="0 0 20 20" fill="none" xmlns="http://www.w3.org/2000/svg">
<g clip-path="url(#clip0_158_856)">
<path d="M5.38008 0C5.52656 0.090625 5.70156 0.154687 5.81289 0.277344C6.03203 0.51875 6.05859 0.814844 5.925 1.11367C5.79141 1.41211 5.54141 1.54883 5.22617 1.55625C4.79766 1.56641 4.36914 1.5582 3.94062 1.55937C2.59023 1.56367 1.56328 2.59023 1.55977 3.94023C1.55859 4.34297 1.56094 4.74531 1.55937 5.14805C1.55742 5.61211 1.32383 5.91328 0.910547 5.98906C0.513672 6.06211 0.185156 5.84687 0.0242187 5.40937C0.0199219 5.39805 0.00820312 5.38945 0 5.37969C0 4.75586 0 4.13203 0 3.5082C0.0117188 3.47187 0.0285156 3.43594 0.034375 3.39883C0.261719 1.92305 1.06445 0.883203 2.43086 0.295703C2.76992 0.15 3.14844 0.0960938 3.50859 0C4.13242 0 4.75625 0 5.38008 0Z" fill="#EC1111"/>
<path d="M16.4526 0C16.6792 0.0503906 16.9088 0.0902344 17.1319 0.153516C18.7842 0.620313 19.9405 2.13086 19.9596 3.8457C19.9647 4.2875 19.9635 4.7293 19.9604 5.17109C19.9569 5.66875 19.6334 6.00625 19.1721 6.00078C18.7178 5.99531 18.4096 5.66211 18.401 5.17266C18.3917 4.62109 18.426 4.06367 18.3573 3.51953C18.2182 2.41992 17.228 1.57852 16.119 1.56172C15.6577 1.55469 15.1963 1.5668 14.735 1.55664C14.4198 1.55 14.1694 1.4125 14.035 1.11445C13.9042 0.823438 13.9249 0.530859 14.1354 0.292969C14.2499 0.164453 14.4307 0.0957031 14.5811 0C15.2049 0 15.8288 0 16.4526 0Z" fill="#EC1111"/>
<path d="M0 14.5809C0.0855469 14.4387 0.145703 14.2692 0.262109 14.1598C0.499609 13.9364 0.79375 13.9008 1.09609 14.0278C1.40625 14.1582 1.54844 14.4114 1.55625 14.7348C1.5668 15.1633 1.55859 15.5922 1.55977 16.0211C1.56367 17.3707 2.59141 18.3965 3.94414 18.4012C4.35977 18.4024 4.77578 18.3993 5.19141 18.402C5.65391 18.4051 5.99805 18.7336 6.00312 19.1715C6.0082 19.618 5.66172 19.9668 5.19102 19.9579C4.5168 19.9454 3.83203 19.9813 3.17148 19.8754C1.52578 19.6114 0.252344 18.2344 0.0359375 16.5817C0.0300781 16.5379 0.0121094 16.4954 0 16.4524C0 15.8286 0 15.2047 0 14.5809Z" fill="#EC1111"/>
<path d="M16.6076 9.98669C16.6076 10.805 16.6119 11.6238 16.6064 12.4422C16.599 13.5633 16.1006 14.3976 15.1072 14.9175C13.8197 15.5914 12.5264 16.2535 11.2318 16.9133C10.3799 17.3476 9.52363 17.3406 8.67285 16.9C7.3998 16.241 6.12324 15.5879 4.8541 14.9218C3.86152 14.4008 3.35762 13.5691 3.35371 12.4472C3.34824 10.8101 3.34824 9.17302 3.35371 7.53591C3.35723 6.40622 3.86465 5.57145 4.86777 5.05114C6.14004 4.39099 7.4166 3.73825 8.69395 3.08708C9.53223 2.65974 10.3771 2.65388 11.2182 3.07966C12.5029 3.73005 13.7873 4.382 15.0682 5.03981C16.0947 5.56716 16.6064 6.41481 16.6076 7.5695C16.6084 8.37497 16.6076 9.18044 16.6076 9.9863V9.98669ZM4.91152 9.98044C4.91152 10.7797 4.9209 11.5789 4.9084 12.3781C4.8998 12.9406 5.13965 13.3226 5.63926 13.5769C6.88809 14.2129 8.13066 14.8613 9.37324 15.5097C9.76738 15.7156 10.1502 15.7195 10.5451 15.5148C11.8186 14.8554 13.0939 14.2008 14.3701 13.5461C14.8248 13.3129 15.0498 12.9468 15.049 12.434C15.0463 10.8031 15.0467 9.17224 15.049 7.54138C15.0498 7.03786 14.8338 6.66989 14.385 6.44138C13.0955 5.78474 11.8057 5.13005 10.517 4.47145C10.1408 4.27927 9.77246 4.28552 9.39824 4.4781C8.1291 5.13161 6.85879 5.78278 5.5873 6.43161C5.13066 6.66481 4.9084 7.03122 4.91074 7.54333C4.91465 8.35544 4.91191 9.16794 4.91191 9.98005L4.91152 9.98044Z" fill="#EC1111"/>
<path d="M15.5067 19.9605C15.2536 19.9605 15 19.9655 14.7469 19.9593C14.2879 19.948 13.9649 19.6276 13.961 19.1878C13.9571 18.7409 14.2852 18.4105 14.7528 18.403C15.1813 18.3964 15.6098 18.403 16.0383 18.4011C17.3653 18.3944 18.3957 17.3663 18.4024 16.0421C18.4043 15.6265 18.4008 15.2108 18.4032 14.7956C18.4063 14.2948 18.7223 13.9593 19.184 13.9605C19.645 13.9616 19.9688 14.298 19.959 14.7995C19.9457 15.4733 19.9797 16.1573 19.8727 16.8175C19.5903 18.5636 17.9766 19.9151 16.2078 19.9581C15.9743 19.964 15.7403 19.9589 15.5067 19.9589V19.9605Z" fill="#EC1111"/>
<path d="M9.16302 11.8012C9.16302 11.3012 9.15872 10.8012 9.16575 10.3012C9.16731 10.1813 9.1302 10.1165 9.02317 10.0606C8.31575 9.69224 7.61145 9.31685 6.90677 8.94342C6.472 8.71295 6.3138 8.26568 6.52356 7.8649C6.73255 7.46568 7.19427 7.33756 7.62903 7.56529C8.35286 7.9442 9.07552 8.32623 9.79583 8.71177C9.89231 8.76373 9.96458 8.7649 10.0622 8.71217C10.7876 8.32154 11.5126 7.93092 12.2447 7.55318C12.8169 7.25826 13.438 7.64459 13.4107 8.27037C13.397 8.58717 13.2173 8.79732 12.9474 8.94107C12.2661 9.30357 11.5868 9.67037 10.9009 10.0243C10.7579 10.0981 10.7173 10.1852 10.7185 10.3391C10.7251 11.3262 10.7259 12.3133 10.72 13.3004C10.7165 13.8735 10.2357 14.2321 9.70247 14.0723C9.37708 13.9747 9.16809 13.6919 9.16419 13.3208C9.15872 12.8141 9.16263 12.3075 9.16263 11.8012H9.16302Z" fill="#EC1111"/>
</g>
<defs>
<clipPath id="clip0_158_856">
<rect width="20" height="20" fill="white"/>
</clipPath>
</defs>
</svg>
