<svg width="49" height="46" viewBox="0 0 49 46" fill="none" xmlns="http://www.w3.org/2000/svg">
<g clip-path="url(#clip0_148_661)">
<path d="M35.2113 -1.64089e-05H35.9763C37.1239 0.386926 37.5946 1.20114 37.5121 2.38885C37.4796 2.85836 37.5064 3.33268 37.5064 3.83292C38.2062 3.83292 38.8418 3.82812 39.4774 3.83292C44.7214 3.87804 48.9645 8.09792 48.9808 13.35C49.0058 21.06 49.0058 28.77 48.9808 36.481C48.9636 41.7091 44.7281 45.9683 39.5158 45.9817C29.5053 46.0086 19.4938 46.0029 9.48325 45.9837C5.22384 45.976 1.51951 43.108 0.364298 38.9928C0.214744 38.4589 0.119835 37.9097 0 37.3672C0 29.0629 0 20.7595 0 12.4551C0.029719 12.3495 0.0728596 12.2458 0.0881985 12.1373C0.421819 9.76763 1.48212 7.78587 3.27676 6.21122C5.08579 4.62312 7.20927 3.8454 9.61267 3.83196C10.2272 3.82812 10.8417 3.83196 11.4821 3.83196C11.4821 3.30579 11.508 2.843 11.4773 2.38501C11.3958 1.19826 11.8656 0.384045 13.0131 -0.000976562H13.7781C14.9247 0.385005 15.3964 1.19826 15.3139 2.38693C15.2813 2.85644 15.3082 3.33076 15.3082 3.79931H33.6793C33.6793 3.29043 33.7043 2.81227 33.6746 2.33796C33.5998 1.16273 34.0897 0.378284 35.2104 -0.000976562L35.2113 -1.64089e-05ZM24.5067 7.66489C19.5964 7.66489 14.686 7.66393 9.77565 7.66489C6.32632 7.66585 3.82896 10.1613 3.828 13.6073C3.82609 21.1426 3.82609 28.6779 3.828 36.2141C3.828 39.6601 6.32632 42.1575 9.77565 42.1575C19.5801 42.1594 29.3854 42.1594 39.1898 42.1575C42.6708 42.1575 45.1614 39.6678 45.1614 36.1901C45.1634 28.6702 45.1634 21.1512 45.1614 13.6313C45.1614 10.1507 42.6727 7.66585 39.1898 7.66489C34.2958 7.66393 29.4008 7.66489 24.5067 7.66489Z" fill="#EC1111"/>
<path d="M24.4749 15.331C25.1115 15.331 25.749 15.3223 26.3856 15.3329C27.4795 15.3502 28.3106 16.1701 28.3193 17.2282C28.3288 18.3055 27.491 19.1505 26.3741 19.1601C25.1163 19.1716 23.8585 19.1725 22.6017 19.1601C21.5088 19.1485 20.6767 18.3209 20.668 17.2657C20.6594 16.1874 21.4973 15.3492 22.6122 15.3329C23.2325 15.3242 23.8537 15.331 24.4749 15.331Z" fill="#EC1111"/>
<path d="M37.5144 19.1627C36.8779 19.1627 36.2403 19.1723 35.6038 19.1608C34.5138 19.1406 33.6835 18.312 33.6797 17.2558C33.6759 16.1968 34.5032 15.348 35.5865 15.3355C36.8596 15.3202 38.1337 15.3221 39.4068 15.3355C40.4969 15.347 41.3261 16.1805 41.3309 17.2395C41.3357 18.2976 40.5084 19.1387 39.4241 19.1617C38.7875 19.1752 38.151 19.1646 37.5135 19.1646L37.5144 19.1627Z" fill="#EC1111"/>
<path d="M11.4718 22.9956C12.1084 22.9956 12.7459 22.9869 13.3825 22.9975C14.4734 23.0157 15.3027 23.8424 15.3075 24.9015C15.3123 25.9586 14.4849 26.8103 13.4016 26.8237C12.1285 26.84 10.8544 26.8381 9.5813 26.8237C8.49128 26.8122 7.66106 25.9778 7.65627 24.9207C7.65148 23.8434 8.49128 23.0119 9.6091 22.9965C10.2294 22.9879 10.8506 22.9946 11.4718 22.9956Z" fill="#EC1111"/>
<path d="M24.4741 22.9956C25.1107 22.9956 25.7482 22.9879 26.3848 22.9975C27.4796 23.0148 28.3108 23.8319 28.3213 24.89C28.3318 25.9682 27.4949 26.8141 26.379 26.8247C25.1212 26.8371 23.8634 26.8371 22.6066 26.8247C21.4945 26.8131 20.6567 25.9624 20.6701 24.8842C20.6835 23.828 21.5166 23.0129 22.6114 22.9965C23.2317 22.9869 23.8529 22.9946 24.4741 22.9946V22.9956Z" fill="#EC1111"/>
<path d="M37.4953 26.8275C36.8741 26.8275 36.2538 26.8352 35.6326 26.8265C34.5148 26.8102 33.6759 25.9758 33.6817 24.8995C33.6874 23.8424 34.5186 23.0099 35.6086 22.9994C36.8817 22.9869 38.1558 22.9849 39.429 22.9994C40.5123 23.0128 41.3377 23.8635 41.3319 24.9235C41.3262 25.9605 40.5094 26.7968 39.452 26.8236C38.8001 26.84 38.1462 26.8265 37.4943 26.8275H37.4953Z" fill="#EC1111"/>
<path d="M11.4804 34.4928C10.8438 34.4928 10.2063 34.5033 9.56974 34.4908C8.48355 34.4697 7.6543 33.6334 7.6543 32.5773C7.6543 31.5192 8.48355 30.6771 9.56974 30.6656C10.8429 30.6512 12.1169 30.6512 13.3901 30.6656C14.4772 30.6781 15.3055 31.5182 15.3055 32.5773C15.3055 33.6344 14.4763 34.4697 13.3901 34.4908C12.7535 34.5033 12.1169 34.4928 11.4794 34.4928H11.4804Z" fill="#EC1111"/>
<path d="M24.4693 34.4935C23.848 34.4935 23.2278 34.5021 22.6066 34.4916C21.4935 34.4733 20.6556 33.6303 20.6681 32.553C20.6796 31.4969 21.5137 30.674 22.6075 30.6644C23.8653 30.6529 25.1231 30.6529 26.3799 30.6644C27.4757 30.674 28.3069 31.4959 28.3184 32.554C28.3308 33.6322 27.4929 34.4743 26.379 34.4916C25.7424 34.5021 25.1058 34.4935 24.4683 34.4935H24.4693Z" fill="#EC1111"/>
</g>
<defs>
<clipPath id="clip0_148_661">
<rect width="49" height="46" fill="white"/>
</clipPath>
</defs>
</svg>
