<svg width="28" height="27" viewBox="0 0 28 27" fill="none" xmlns="http://www.w3.org/2000/svg">
<g opacity="0.2" clip-path="url(#clip0_148_1363)">
<path fill-rule="evenodd" clip-rule="evenodd" d="M27.686 22.2411C27.323 24.9371 25.074 26.9521 22.367 26.9581C16.7 26.9711 11.034 26.9691 5.368 26.9581C2.957 26.9541 0.86 25.3331 0.206 23.0091C0.121 22.7071 0.068 22.3971 0 22.0901C0 17.3981 0 12.7061 0 8.01413C0.016 7.96313 0.04 7.91313 0.048 7.86113C0.36 5.82613 1.468 4.39513 3.342 3.55913C4.017 3.25813 4.736 3.13613 5.475 3.14113C5.814 3.14413 6.152 3.14113 6.5 3.14113C6.5 2.78413 6.499 2.46813 6.5 2.15313C6.503 1.46613 6.946 0.981129 7.573 0.976129C8.214 0.971129 8.664 1.45813 8.667 2.16013C8.668 2.48213 8.667 2.80313 8.667 3.12213C12.152 3.12213 15.602 3.12213 19.067 3.12213C19.067 2.78013 19.065 2.45713 19.067 2.13213C19.071 1.45513 19.531 0.970129 20.161 0.976129C20.78 0.981129 21.228 1.46213 21.233 2.12713C21.236 2.45813 21.233 2.78913 21.233 3.14113C21.623 3.14113 21.981 3.13913 22.34 3.14213C24.788 3.16113 26.902 4.78613 27.545 7.14713C27.623 7.43213 27.672 7.72513 27.734 8.01413C27.734 12.7061 27.734 17.3981 27.734 22.0901C27.717 22.1411 27.693 22.1901 27.686 22.2411ZM25.567 8.69713C25.567 6.70913 24.165 5.30813 22.178 5.30713C19.407 5.30613 16.636 5.30713 13.866 5.30713C11.086 5.30713 8.306 5.30613 5.526 5.30713C3.578 5.30813 2.167 6.72213 2.167 8.67313C2.166 12.9211 2.166 17.1711 2.167 21.4191C2.167 23.3871 3.575 24.7961 5.542 24.7971C11.093 24.7981 16.643 24.7981 22.194 24.7971C24.16 24.7961 25.566 23.3861 25.567 21.4171C25.568 17.1771 25.567 12.9381 25.567 8.69713ZM22.299 16.1331C21.587 16.1391 20.876 16.1401 20.163 16.1331C19.534 16.1271 19.06 15.6451 19.068 15.0361C19.075 14.4391 19.547 13.9791 20.167 13.9711C20.519 13.9651 20.87 13.9701 21.222 13.9701C21.582 13.9701 21.943 13.9641 22.303 13.9711C22.923 13.9801 23.393 14.4421 23.399 15.0401C23.405 15.6491 22.931 16.1271 22.299 16.1331ZM22.317 11.8011C21.596 11.8101 20.875 11.8091 20.154 11.8011C19.538 11.7951 19.068 11.3191 19.068 10.7221C19.067 10.1251 19.536 9.65113 20.15 9.64013C20.519 9.63313 20.889 9.63813 21.259 9.63813C21.61 9.63813 21.962 9.63313 22.313 9.64013C22.929 9.65113 23.398 10.1201 23.399 10.7181C23.4 11.3161 22.931 11.7941 22.317 11.8011ZM14.931 20.4641C14.219 20.4701 13.507 20.4711 12.795 20.4641C12.177 20.4581 11.706 19.9891 11.701 19.3931C11.696 18.7841 12.171 18.3101 12.803 18.3021C13.154 18.2961 13.506 18.3011 13.857 18.3011C14.217 18.3011 14.578 18.2961 14.938 18.3021C15.557 18.3121 16.028 18.7751 16.032 19.3731C16.038 19.9821 15.563 20.4591 14.931 20.4641ZM14.948 16.1321C14.227 16.1401 13.506 16.1401 12.785 16.1321C12.17 16.1251 11.701 15.6481 11.701 15.0511C11.701 14.4541 12.171 13.9821 12.785 13.9711C13.155 13.9631 13.524 13.9701 13.894 13.9701C14.245 13.9701 14.597 13.9631 14.948 13.9711C15.564 13.9821 16.032 14.4531 16.032 15.0521C16.032 15.6491 15.563 16.1251 14.948 16.1321ZM14.915 11.8031C14.563 11.8071 14.212 11.8041 13.86 11.8031C13.5 11.8031 13.139 11.8091 12.779 11.8021C12.166 11.7891 11.698 11.3111 11.701 10.7141C11.704 10.1161 12.175 9.64613 12.792 9.64013C13.503 9.63313 14.216 9.63313 14.927 9.64013C15.561 9.64413 16.036 10.1171 16.032 10.7261C16.029 11.3351 15.553 11.7961 14.915 11.8031ZM7.587 20.4641C7.226 20.4711 6.866 20.4661 6.505 20.4661C6.145 20.4661 5.784 20.4701 5.424 20.4641C4.807 20.4531 4.337 19.9851 4.334 19.3871C4.332 18.7901 4.8 18.3101 5.413 18.3031C6.134 18.2951 6.855 18.2951 7.576 18.3031C8.194 18.3091 8.663 18.7791 8.666 19.3781C8.668 19.9761 8.2 20.4511 7.587 20.4641ZM7.566 16.1331C6.854 16.1391 6.142 16.1401 5.43 16.1331C4.801 16.1271 4.327 15.6451 4.334 15.0361C4.342 14.4391 4.814 13.9791 5.434 13.9711C5.785 13.9651 6.137 13.9701 6.488 13.9701C6.849 13.9701 7.209 13.9641 7.57 13.9711C8.19 13.9801 8.66 14.4421 8.666 15.0401C8.672 15.6491 8.197 16.1271 7.566 16.1331Z" fill="#464451"/>
</g>
<defs>
<clipPath id="clip0_148_1363">
<rect width="28" height="27" fill="white"/>
</clipPath>
</defs>
</svg>
