<svg width="24" height="33" viewBox="0 0 24 33" fill="none" xmlns="http://www.w3.org/2000/svg">
<g clip-path="url(#clip0_148_1287)">
<path fill-rule="evenodd" clip-rule="evenodd" d="M11.3634 24.9878C12.0934 24.9928 12.6404 25.5378 12.6364 26.2398C12.6324 26.9398 12.0844 27.4718 11.3494 27.4808C10.9444 27.4848 10.5394 27.4818 10.1344 27.4818C9.71938 27.4808 9.30338 27.4878 8.88938 27.4798C8.18338 27.4638 7.64338 26.9138 7.64738 26.2248C7.65038 25.5378 8.19238 24.9948 8.90338 24.9878C9.72338 24.9798 10.5434 24.9808 11.3634 24.9878ZM10.1344 8.01481C9.71938 8.01481 9.30338 8.02181 8.88938 8.01381C8.18338 7.99881 7.64338 7.44881 7.64738 6.75981C7.65038 6.07181 8.19238 5.52981 8.90338 5.52081C9.72338 5.51381 10.5434 5.51581 11.3634 5.52081C12.0934 5.52681 12.6404 6.07181 12.6364 6.77581C12.6324 7.47381 12.0844 8.00581 11.3484 8.01481C10.9444 8.01881 10.5394 8.01581 10.1344 8.01481ZM13.0274 16.1228C12.5624 16.6138 12.0764 17.0828 11.5984 17.5598C10.8564 18.3028 10.1164 19.0458 9.37238 19.7858C8.75138 20.4018 8.04138 20.4048 7.42738 19.7938C6.62438 18.9948 5.82038 18.1968 5.02738 17.3898C4.62938 16.9838 4.54638 16.4668 4.76738 15.9828C4.98238 15.5138 5.45738 15.2248 5.97138 15.2558C6.32038 15.2778 6.60338 15.4348 6.84638 15.6788C7.35038 16.1898 7.85838 16.6948 8.39438 17.2328C9.18638 16.4398 9.94938 15.6768 10.7114 14.9138C10.8954 14.7288 11.0744 14.5418 11.2644 14.3648C11.7814 13.8858 12.5194 13.8868 13.0074 14.3598C13.5024 14.8408 13.5214 15.6018 13.0274 16.1228ZM22.5644 22.7378C20.0994 22.7418 17.6354 22.7418 15.1714 22.7378C14.4234 22.7368 13.8874 22.2068 13.8884 21.4628C13.8904 20.6118 13.8074 19.7538 14.0664 18.9228C14.6994 16.8998 16.0584 15.6938 18.1434 15.3098C18.2014 15.2998 18.2584 15.2828 18.3434 15.2618C17.9564 15.1258 17.5844 15.0378 17.2544 14.8688C15.8614 14.1538 15.1164 12.9988 15.1464 11.4328C15.1764 9.87781 15.9674 8.76581 17.3644 8.09481C17.5634 7.99881 17.6384 7.90881 17.6344 7.68781C17.6194 6.98181 17.6334 6.27281 17.6284 5.56781C17.6164 4.10881 16.5384 3.02881 15.0774 3.02681C11.7814 3.02081 8.48538 3.02081 5.18938 3.02681C3.74838 3.02981 2.65838 4.11481 2.65738 5.55181C2.65238 12.8528 2.65238 20.1498 2.65738 27.4488C2.65838 28.8858 3.74938 29.9718 5.19038 29.9758C8.49638 29.9808 11.8024 29.9818 15.1094 29.9748C16.5304 29.9718 17.6094 28.8838 17.6284 27.4628C17.6324 27.1218 17.6204 26.7778 17.6324 26.4348C17.6564 25.7878 18.1694 25.2718 18.8054 25.2368C19.4574 25.2038 20.0674 25.6728 20.1064 26.3258C20.1594 27.2358 20.1934 28.1578 19.8724 29.0388C19.1834 30.9288 17.8504 32.0598 15.8674 32.4158C15.8084 32.4268 15.7524 32.4538 15.6944 32.4718C11.9924 32.4718 8.29138 32.4718 4.58838 32.4718C4.53238 32.4538 4.47638 32.4248 4.41738 32.4158C1.99738 32.0568 0.16638 29.9818 0.16338 27.5398C0.15338 20.1808 0.15438 12.8208 0.16338 5.45981C0.16538 3.19681 1.76038 1.20781 3.95738 0.671809C4.16638 0.618809 4.37838 0.576809 4.58838 0.528809C8.29138 0.528809 11.9924 0.528809 15.6944 0.528809C16.1704 0.666809 16.6724 0.747809 17.1154 0.953809C19.0504 1.85281 20.0534 3.38981 20.1204 5.52181C20.1444 6.25881 20.1284 6.99881 20.1214 7.73781C20.1194 7.89881 20.1554 7.99081 20.3204 8.06481C21.8714 8.76081 22.7734 10.2658 22.6074 11.8568C22.4324 13.5378 21.2464 14.8288 19.5424 15.1918C19.5064 15.1998 19.4704 15.2118 19.3394 15.2498C19.5984 15.3018 19.7664 15.3338 19.9324 15.3698C22.1944 15.8528 23.8384 17.8588 23.8664 20.1678C23.8714 20.5968 23.8714 21.0218 23.8664 21.4488C23.8574 22.2128 23.3334 22.7378 22.5644 22.7378ZM20.1234 11.5138C20.1254 10.8268 19.5664 10.2648 18.8804 10.2628C18.1954 10.2608 17.6324 10.8198 17.6304 11.5048C17.6284 12.1898 18.1874 12.7538 18.8724 12.7568C19.5574 12.7578 20.1214 12.1968 20.1234 11.5138ZM18.6714 17.7558C17.3854 17.8588 16.2414 19.1128 16.4234 20.2328C18.0594 20.2328 19.6984 20.2328 21.3594 20.2328C21.3794 18.7968 20.1084 17.6408 18.6714 17.7558Z" fill="#EC1111"/>
</g>
<defs>
<clipPath id="clip0_148_1287">
<rect width="24" height="33" fill="white"/>
</clipPath>
</defs>
</svg>
