<svg width="27" height="27" viewBox="0 0 27 27" fill="none" xmlns="http://www.w3.org/2000/svg">
<path fill-rule="evenodd" clip-rule="evenodd" d="M26.183 14.7479C25.91 17.9699 24.673 20.7649 22.428 23.0899C20.385 25.2069 17.887 26.4559 14.969 26.8539C14.54 26.9129 14.107 26.9519 13.676 26.0999C13.301 26.0999 12.925 26.0999 12.55 26.0999C12.466 26.9859 12.384 26.9619 12.3 26.9569C11.368 26.9129 10.445 26.7829 9.556 26.5079C4.348 24.8939 1.319 21.3199 0.209 16.0439C0.105 15.5539 0.068 15.0499 0 14.5529C0 14.0059 0 13.4599 0 12.9139C0.016 12.8409 0.034 12.7669 0.047 12.6929C0.162 11.9959 0.232 11.2879 0.4 10.6049C1.007 8.12493 2.317 6.04993 4.149 4.29393C6.048 2.47493 8.315 1.39393 10.903 0.976926C11.448 0.887926 12 0.840926 12.55 0.773926C12.925 0.773926 13.301 0.773926 13.676 0.773926C14.242 0.841926 14.811 0.891926 15.374 0.980926C21.219 1.89493 25.189 6.70293 26.017 11.4519C26.104 11.9529 26.157 12.4599 26.226 12.9649C26.226 13.4769 26.226 13.9899 26.226 14.5019C26.211 14.5839 26.19 14.6649 26.183 14.7479ZM13.133 2.81493C7.057 2.79293 1.974 7.75493 2.073 13.8209C2.182 20.5469 7.024 24.8169 13.105 24.8829C19.097 24.8329 24.024 20.6569 24.153 13.8349C24.267 7.78393 19.224 2.83693 13.133 2.81493ZM17.46 18.8969C17.056 19.0219 16.702 18.9109 16.406 18.6159C15.47 17.6819 14.531 16.7509 13.605 15.8069C13.372 15.5699 13.137 15.4199 12.79 15.3629C11.668 15.1769 11.198 13.7469 11.94 12.8729C12.023 12.7749 12.082 12.6219 12.082 12.4949C12.091 10.5829 12.085 8.67193 12.09 6.76093C12.092 5.98293 12.75 5.49993 13.461 5.74293C13.882 5.88693 14.134 6.25493 14.136 6.75393C14.14 7.71793 14.137 8.68193 14.137 9.64593C14.137 10.5929 14.132 11.5399 14.144 12.4869C14.145 12.6159 14.202 12.7639 14.281 12.8679C14.488 13.1409 14.609 13.4389 14.653 13.7779C14.667 13.8919 14.721 14.0229 14.8 14.1029C15.807 15.1229 16.821 16.1359 17.836 17.1469C18.109 17.4189 18.241 17.7389 18.162 18.1199C18.081 18.5109 17.841 18.7779 17.46 18.8969Z" fill="#464451"/>
</svg>
