<svg width="22" height="22" viewBox="0 0 22 22" fill="none" xmlns="http://www.w3.org/2000/svg">
<g clip-path="url(#clip0_228_1727)">
<path d="M11.2316 21.4847H10.3053C10.2358 21.4732 10.1663 21.4558 10.1026 21.45C9.33842 21.4153 8.58 21.3053 7.85053 21.0795C3.57211 19.7595 1.08263 16.8301 0.173684 12.5054C0.0868421 12.106 0.0578947 11.6891 0 11.2839C0 10.8381 0 10.3865 0 9.94076C0.0463158 9.5934 0.0810526 9.25183 0.138947 8.90446C0.636842 6.04452 2.09579 3.75772 4.41158 2.04407C6.85474 0.237791 9.63368 -0.30641 12.6211 0.156739C17.4611 0.909356 20.7205 4.90402 21.3747 8.78289C21.4442 9.18235 21.4847 9.58182 21.5426 9.98129V11.2434C21.5311 11.3128 21.5137 11.3765 21.5079 11.446C21.2821 14.0859 20.2689 16.3785 18.4221 18.2832C16.7432 20.02 14.6937 21.0448 12.2968 21.369C11.9437 21.4153 11.5905 21.45 11.2374 21.4905L11.2316 21.4847ZM10.7626 19.7479C15.6837 19.7074 19.7305 16.2859 19.8347 10.6934C19.9274 5.73189 15.7879 1.67934 10.7858 1.66197C5.79526 1.64461 1.62105 5.71453 1.70211 10.6818C1.79474 16.1933 5.76632 19.6958 10.7626 19.7479Z" fill="#EC1111"/>
<path d="M11.6082 7.26075C11.6082 8.0481 11.6082 8.84124 11.6082 9.6286C11.6082 9.72123 11.6603 9.82544 11.7182 9.9007C11.8919 10.1207 11.9903 10.3696 12.0251 10.6475C12.0367 10.7459 12.0888 10.8617 12.1582 10.9312C12.9919 11.7707 13.8314 12.6043 14.6651 13.4438C14.914 13.6927 14.9951 13.9938 14.8735 14.3296C14.7577 14.648 14.5261 14.8332 14.1903 14.8795C13.8893 14.9201 13.6461 14.8043 13.4377 14.5901C12.6272 13.7796 11.8109 12.9691 11.0003 12.1528C10.8961 12.0486 10.7919 11.9907 10.6414 11.9791C10.1261 11.927 9.76719 11.6491 9.58771 11.1686C9.40824 10.6996 9.49508 10.2654 9.82508 9.87754C9.88298 9.80807 9.91771 9.69228 9.91771 9.59965C9.91771 8.03073 9.91771 6.46761 9.91771 4.89869C9.91771 4.25028 10.4735 3.85081 11.0582 4.06502C11.394 4.1866 11.5967 4.48764 11.5967 4.88711C11.5967 5.67446 11.5967 6.46761 11.5967 7.25496L11.6082 7.26075Z" fill="#EC1111"/>
</g>
<defs>
<clipPath id="clip0_228_1727">
<rect width="22" height="22" fill="white"/>
</clipPath>
</defs>
</svg>
