<svg width="27" height="28" viewBox="0 0 27 28" fill="none" xmlns="http://www.w3.org/2000/svg">
<g clip-path="url(#clip0_228_1680)">
<path d="M20.388 10.6648C20.5135 11.0521 20.7052 11.4332 20.753 11.828C20.8924 12.9852 20.2349 14.0195 19.1408 14.4068C17.9198 14.8391 16.6917 15.2532 15.4592 15.6543C15.0821 15.777 14.8297 15.9887 14.644 16.3383C14.0526 17.452 13.4436 18.5559 12.8308 19.6578C12.0185 21.1187 10.2821 21.4292 8.94873 20.3603C8.92807 20.3435 8.89916 20.337 8.8745 20.3258C8.72785 20.151 8.58093 19.9759 8.43428 19.8011C8.31961 19.4982 8.17108 19.203 8.09636 18.8912C7.72103 17.3274 7.36491 15.7593 7.00212 14.1922C6.54525 12.2182 6.0838 10.2453 5.63302 8.2701C5.39595 7.22962 5.66654 6.34535 6.48506 5.68932C7.26886 5.06074 8.15798 4.98701 9.09878 5.38662C11.8173 6.5422 14.54 7.68858 17.2529 8.85893C18.1651 9.25234 19.1312 9.53274 19.9481 10.1399L20.3883 10.6645L20.388 10.6648ZM18.9003 11.4502C18.7749 11.3729 18.6569 11.2777 18.5231 11.2209C15.1605 9.78734 11.7957 8.35782 8.43164 6.92776C8.10215 6.78774 7.79358 6.8149 7.52638 7.04527C7.26625 7.26914 7.19136 7.56374 7.27119 7.90373C7.35056 8.24188 7.42782 8.58011 7.506 8.91813C8.24693 12.1205 8.98815 15.3231 9.72785 18.5259C9.78031 18.7534 9.86495 18.9595 10.0549 19.108C10.4913 19.45 11.062 19.3294 11.3391 18.8276C11.9823 17.6632 12.6214 16.4965 13.2591 15.3295C13.5727 14.755 14.0289 14.3498 14.6489 14.1352C15.0768 13.9872 15.5056 13.8429 15.9345 13.6975C16.792 13.4068 17.6512 13.1213 18.5062 12.8238C19.0948 12.6193 19.2806 11.9405 18.9006 11.4499L18.9003 11.4502Z" fill="#EC1111"/>
<path d="M20.2318 22.7541C20.1031 22.8196 19.9753 22.8876 19.8453 22.9502C18.3932 23.6526 16.6249 23.1988 15.6246 21.8678C14.6566 20.5797 14.73 18.7569 15.7968 17.5791C17.0121 16.2379 19.1377 16.1316 20.4859 17.3448C21.9315 18.6453 22.1003 20.7664 20.8706 22.1671C20.8444 22.197 20.8283 22.2362 20.8072 22.2708L20.2315 22.7538L20.2318 22.7541ZM17.228 18.5697C16.518 19.1583 16.4305 20.2315 17.0341 20.956C17.6333 21.6753 18.697 21.7921 19.4001 21.2161C20.1138 20.6313 20.2077 19.5566 19.6089 18.8313C19.0066 18.1012 17.9358 17.9837 17.228 18.5703L17.228 18.5697Z" fill="#EC1111"/>
</g>
<defs>
<clipPath id="clip0_228_1680">
<rect width="15.1128" height="21.9136" fill="white" transform="translate(0.648438 10.5859) rotate(-40)"/>
</clipPath>
</defs>
</svg>
