<svg width="15" height="18" viewBox="0 0 15 18" fill="none" xmlns="http://www.w3.org/2000/svg">
<g clip-path="url(#clip0_148_713)">
<path d="M0 14.3188C0.015 14.2812 0.03 14.2439 0.0453409 14.2063C0.174545 13.8888 0.487159 13.7064 0.798409 13.7665C1.12773 13.8301 1.35818 14.1071 1.36227 14.4591C1.36705 14.9034 1.36295 15.3478 1.36398 15.7918C1.365 16.2784 1.64216 16.5639 2.11636 16.5642C5.70545 16.5646 9.29489 16.5646 12.884 16.5642C13.3575 16.5642 13.6353 16.2784 13.6364 15.7918C13.6374 15.3826 13.6364 14.9734 13.6364 14.5642C13.6364 14.1226 13.8399 13.8361 14.2016 13.7665C14.5408 13.7011 14.8285 13.893 14.983 14.2882C14.987 14.2987 14.9942 14.3086 15 14.3184V16.1434C14.9881 16.1807 14.9731 16.2176 14.9645 16.2555C14.7931 17.0381 14.3451 17.5736 13.6142 17.8537C13.4888 17.9019 13.3565 17.9307 13.2273 17.9684H1.77273C1.73625 17.9561 1.7008 17.9402 1.66364 17.9321C1.06227 17.7986 0.586705 17.4723 0.286023 16.9189C0.156477 16.6802 0.0934091 16.4032 0 16.1437C0 15.5355 0 14.9273 0 14.3188Z" fill="white"/>
<path d="M4.09122 6.73862C4.09122 6.64651 4.09122 6.57726 4.09122 6.50765C4.09122 5.06343 4.09054 3.61921 4.09122 2.17499C4.09224 0.92167 4.98167 0.00233376 6.19531 0.000927513C7.07008 -0.000127174 7.94486 -0.000478737 8.81929 0.000927513C10.0125 0.00303689 10.9077 0.924834 10.9091 2.1546C10.9108 3.60444 10.9094 5.05464 10.9094 6.50448V6.73862C11.1307 6.73862 11.3441 6.73792 11.5575 6.73862C12.5505 6.74214 13.3578 7.38761 13.5825 8.38253C13.7345 9.05647 13.5787 9.66749 13.156 10.205C13.1062 10.2687 13.051 10.3281 12.9951 10.3861C11.658 11.7632 10.3237 13.143 8.9819 14.5152C8.27008 15.2433 7.25042 15.3698 6.42133 14.8421C6.26827 14.7448 6.12645 14.6224 5.99861 14.4913C4.66633 13.1258 3.33576 11.7586 2.00929 10.3868C0.894515 9.23366 1.2869 7.37214 2.75622 6.85499C2.9669 6.78081 3.1994 6.76147 3.42372 6.74214C3.63713 6.72351 3.85361 6.73827 4.09156 6.73827L4.09122 6.73862ZM9.54576 4.77198C9.54576 3.90644 9.54645 3.04089 9.54576 2.17534C9.54508 1.68913 9.2669 1.40507 8.79167 1.40472C7.9452 1.40401 7.09872 1.40472 6.2519 1.40472C5.71702 1.40472 5.4552 1.67226 5.45486 2.21929C5.45486 3.94476 5.45554 5.66987 5.45417 7.39534C5.45383 7.84886 5.16917 8.1403 4.72872 8.14241C4.30838 8.14452 3.8877 8.14522 3.46736 8.14206C3.15236 8.1396 2.91713 8.27003 2.7852 8.56886C2.66145 8.84976 2.7269 9.1419 2.96247 9.38413C4.29986 10.7619 5.63758 12.139 6.97599 13.5153C7.29167 13.8398 7.70486 13.8441 8.01815 13.522C9.36133 12.1421 10.7021 10.7601 12.0439 9.37886C12.2669 9.14964 12.3344 8.88175 12.2182 8.57694C12.1118 8.29815 11.8657 8.14382 11.5414 8.14276C11.1266 8.14171 10.712 8.14312 10.2971 8.14241C9.82292 8.14136 9.54611 7.85694 9.54576 7.36897C9.54508 6.50343 9.54576 5.63788 9.54576 4.77233V4.77198Z" fill="white"/>
</g>
<defs>
<clipPath id="clip0_148_713">
<rect width="15" height="18" fill="white"/>
</clipPath>
</defs>
</svg>
