<svg width="18" height="16" viewBox="0 0 18 16" fill="none" xmlns="http://www.w3.org/2000/svg">
<g opacity="0.6" clip-path="url(#clip0_158_864)">
<path d="M12.2377 1.25245C12.4757 1.25245 12.6992 1.34701 12.8671 1.51828L16.4867 5.20955C16.6706 5.3971 16.7719 5.64634 16.7719 5.91155C16.7719 6.17675 16.6706 6.42599 16.4867 6.61354L9.0195 14.2287L8.99985 14.2087L8.9802 14.2287L1.51333 6.61354C1.32942 6.42599 1.2281 6.17675 1.2281 5.91155C1.2281 5.64634 1.32942 5.3971 1.51333 5.20955L5.13286 1.51828C5.30111 1.34669 5.52462 1.25245 5.76226 1.25245C5.9999 1.25245 6.22372 1.34701 6.39166 1.51828L8.13127 3.29237L8.99954 4.17785L9.86781 3.29237L11.6074 1.51828C11.7757 1.34669 11.9992 1.25245 12.2368 1.25245M12.2368 0C11.6946 0 11.1524 0.211037 10.7388 0.632798L8.99923 2.40689L7.25962 0.632798C6.84667 0.211037 6.30447 0 5.76226 0C5.22005 0 4.67784 0.211037 4.26428 0.632798L0.644754 4.32407C-0.214918 5.20078 -0.214918 6.62231 0.644754 7.49902L8.9805 16L9.00015 15.98L9.0198 16L17.3552 7.49933C18.2149 6.62262 18.2149 5.2011 17.3552 4.32438L13.7357 0.632798C13.3222 0.211037 12.7799 0 12.2377 0L12.2368 0Z" fill="#464451"/>
</g>
<defs>
<clipPath id="clip0_158_864">
<rect width="18" height="16" fill="white"/>
</clipPath>
</defs>
</svg>
