<svg width="22" height="18" viewBox="0 0 22 18" fill="none" xmlns="http://www.w3.org/2000/svg">
<g clip-path="url(#clip0_228_1736)">
<path d="M18.1359 17.7213C13.3805 17.7213 8.63077 17.7329 3.87538 17.7329C3.8359 17.7213 3.79641 17.6981 3.75692 17.6923C1.63026 17.4077 0.0225641 15.5555 0.0112821 13.349C0 10.3587 0 7.37419 0 4.38387C0.0112821 2.53742 1.17897 0.870968 2.87128 0.272903C3.19282 0.156774 3.53128 0.0987097 3.8641 0.0116129C8.61949 0.0116129 13.3692 0 18.1246 0C18.1641 0.0116129 18.2036 0.0348387 18.2431 0.0406452C20.0256 0.284516 21.4528 1.60839 21.8703 3.40839C21.9154 3.6 21.9492 3.79161 21.9887 3.98903C21.9887 7.23484 21.9944 10.4865 22 13.7323C21.9887 13.7729 21.9662 13.8135 21.9605 13.8542C21.701 15.5671 20.7985 16.7632 19.2415 17.4135C18.8918 17.5587 18.5026 17.6226 18.1359 17.7213ZM11 15.9561C13.2056 15.9561 15.4113 15.9561 17.6113 15.9503C19.1569 15.9503 20.2795 14.7948 20.2795 13.1981C20.2795 10.3065 20.2795 7.40903 20.2738 4.51742C20.2738 2.92645 19.1513 1.77097 17.6 1.77677C13.2 1.77677 8.8 1.78258 4.39436 1.78839C2.83179 1.78839 1.71487 2.94387 1.71487 4.55226C1.71487 7.43226 1.71487 10.3065 1.72051 13.1865C1.72051 14.8239 2.83179 15.9619 4.42821 15.9619C6.61692 15.9619 8.80564 15.9619 11 15.9561Z" fill="#EC1111"/>
<path d="M14.7566 8.84866C15.0218 9.13898 15.2869 9.41769 15.5464 9.70221C16.4489 10.6719 17.3515 11.6416 18.2597 12.6054C18.4853 12.8493 18.6151 13.1222 18.5418 13.4648C18.4741 13.8016 18.2766 14.0338 17.9494 14.1325C17.6053 14.2429 17.312 14.1441 17.0694 13.8887C16.6125 13.4067 16.1669 12.919 15.7156 12.437C14.9992 11.6706 14.2884 10.9041 13.5889 10.1551C13.3464 10.3932 13.1038 10.6196 12.8669 10.8519C12.1392 11.5835 11.2874 11.8274 10.3059 11.5719C9.85457 11.45 9.47098 11.2003 9.13816 10.8577C8.91252 10.6254 8.66996 10.4048 8.38226 10.1319C8.36534 10.1609 8.33149 10.2422 8.28073 10.3003C7.18073 11.4848 6.08072 12.6693 4.98637 13.8538C4.75508 14.1035 4.47867 14.2429 4.14021 14.1732C3.46893 14.0338 3.22072 13.2209 3.68893 12.6867C4.01047 12.3209 4.34893 11.9725 4.68175 11.6125C5.48278 10.7474 6.28944 9.88801 7.09047 9.02285C7.14124 8.9706 7.18637 8.91253 7.24278 8.84866C7.18637 8.78479 7.12996 8.72672 7.07919 8.66866C5.9679 7.48995 4.85662 6.30543 3.7397 5.12672C3.50842 4.88285 3.38431 4.60995 3.45201 4.26737C3.5197 3.9306 3.71714 3.69834 4.04431 3.59963C4.38278 3.48931 4.68175 3.58802 4.92431 3.8435C5.47713 4.42414 6.02431 5.00479 6.57149 5.59124C7.81252 6.90931 9.05355 8.22737 10.3002 9.54543C10.7571 10.0332 11.2423 10.0332 11.6992 9.54543C13.4648 7.66414 15.2361 5.78285 17.0018 3.89576C17.2443 3.64027 17.5151 3.48931 17.8648 3.55898C18.192 3.62866 18.4176 3.83189 18.5192 4.16285C18.6264 4.50543 18.5418 4.80737 18.3048 5.06285C17.8761 5.52737 17.4418 5.98608 17.0074 6.4506C16.3079 7.19963 15.6028 7.94285 14.8976 8.69189C14.8525 8.73834 14.813 8.7906 14.7623 8.84866H14.7566Z" fill="#EC1111"/>
</g>
<defs>
<clipPath id="clip0_228_1736">
<rect width="22" height="18" fill="white"/>
</clipPath>
</defs>
</svg>
