<svg width="20" height="20" viewBox="0 0 20 20" fill="none" xmlns="http://www.w3.org/2000/svg">
<g clip-path="url(#clip0_158_840)">
<path d="M16.8399 4.72121C16.8399 4.35147 16.5894 4.0443 16.225 3.96466C15.8948 3.89072 15.65 4.03292 15.4223 4.25477C11.7047 7.98059 7.98134 11.7121 4.25803 15.4379C4.21817 15.4777 4.17263 15.5233 4.13847 15.5631C3.93921 15.7906 3.89367 16.0466 3.99045 16.3253C4.09293 16.6097 4.29219 16.7917 4.59392 16.8429C4.90135 16.8941 5.13477 16.769 5.33972 16.5585C7.27539 14.6188 9.21106 12.6791 11.1467 10.7394C12.9401 8.94191 14.7334 7.14441 16.5324 5.35261C16.7089 5.17627 16.8342 4.98287 16.8342 4.72121H16.8399ZM8.93209 7.56535C9.51279 7.54828 10.0423 7.38332 10.4635 6.97377C11.3232 6.13759 12.1658 5.29003 13.0084 4.43679C13.2475 4.19788 13.2817 3.89072 13.1507 3.58355C12.9287 3.07729 12.2854 2.96922 11.8811 3.3674C11.1069 4.13531 10.344 4.90323 9.57542 5.67684C9.13705 6.11484 8.71575 6.10915 8.27738 5.67115C7.5202 4.90892 6.7687 4.14669 6.00582 3.38446C5.67562 3.05454 5.20309 3.04316 4.88997 3.35033C4.57115 3.6575 4.57684 4.14669 4.90704 4.4823C5.687 5.27297 6.47266 6.06364 7.25831 6.85431C7.71946 7.32075 8.28308 7.54828 8.93779 7.56535H8.93209ZM6.84271 9.63019C6.83133 9.02155 6.64915 8.48116 6.23924 8.04885C5.66423 7.44589 5.07215 6.86 4.48006 6.26842C4.30357 6.09208 4.08154 6.01813 3.83673 6.05795C3.5293 6.10915 3.31297 6.2798 3.21049 6.57559C3.10801 6.88275 3.17633 7.15579 3.40406 7.38332C3.93352 7.92371 4.46867 8.45841 4.99813 8.99311C5.39096 9.39129 5.39096 9.8236 4.99813 10.2275C4.47437 10.7622 3.9449 11.2912 3.42114 11.8316C3.09093 12.1729 3.08524 12.6564 3.40406 12.9635C3.72287 13.2707 4.18971 13.265 4.51991 12.9294C5.08353 12.3663 5.64146 11.8031 6.19369 11.2343C6.63207 10.7849 6.83702 10.2332 6.84841 9.62451L6.84271 9.63019Z" fill="white"/>
<path d="M4.69054 20.0001C4.32618 19.9489 3.95043 19.9261 3.59176 19.8465C1.53085 19.3687 0.0164725 17.5029 0.0107793 15.3812C-0.00060694 11.7976 -0.00630008 8.21397 0.0107793 4.63035C0.0221656 2.07631 2.09447 0.0171504 4.66777 0.0114621C8.21459 8.55464e-05 11.7614 8.55464e-05 15.3082 0.0114621C17.6367 0.0228387 19.5496 1.69519 19.914 3.99895C19.9425 4.18666 19.9595 4.37437 19.9595 4.56209C19.9595 5.90452 19.9652 7.24696 19.9595 8.58939C19.9595 9.17529 19.4642 9.53934 18.9291 9.363C18.5989 9.25492 18.4053 8.96482 18.4053 8.55526C18.4053 7.26402 18.4053 5.97278 18.4053 4.68723C18.4053 3.28791 17.5172 2.09337 16.1736 1.70088C15.8605 1.60987 15.5189 1.56436 15.1944 1.56436C11.7273 1.55299 8.26014 1.55867 4.79302 1.56436C3.21032 1.56436 1.95783 2.55981 1.64471 4.06721C1.59347 4.30043 1.58209 4.54502 1.58209 4.78393C1.58209 8.25378 1.58209 11.7293 1.58209 15.1992C1.58209 17.0592 2.92567 18.4187 4.79302 18.4244C6.99626 18.4301 9.2052 18.4244 11.4084 18.4244C11.5223 18.4244 11.6476 18.4244 11.7557 18.4529C12.1144 18.5382 12.3364 18.8511 12.325 19.2379C12.3137 19.6076 12.0688 19.8977 11.7102 19.966C11.6533 19.9773 11.5963 19.9944 11.5394 20.0058H4.69054V20.0001Z" fill="#EC1111"/>
<path d="M19.9997 14.6073C19.6126 16.4105 18.5138 17.8269 17.415 19.2262C16.6351 20.2216 15.1036 20.2501 14.2952 19.2944C13.4071 18.2364 12.6442 17.0931 12.035 15.8417C10.8907 13.481 12.536 10.6938 15.0239 10.233C17.4378 9.78364 19.6126 11.3707 19.9599 13.8166C19.9656 13.8621 19.9827 13.902 19.994 13.9475V14.613L19.9997 14.6073ZM15.8324 11.7006C15.6729 11.7177 15.5078 11.729 15.3484 11.7575C13.8398 12.0191 12.7182 13.7598 13.4754 15.233C14.0219 16.3081 14.6937 17.2922 15.4395 18.2307C15.6559 18.5038 16.0145 18.4924 16.2366 18.2251C16.4358 17.9861 16.6237 17.7302 16.8059 17.4799C17.3524 16.7233 17.8819 15.9611 18.2406 15.0908C18.343 14.8348 18.4341 14.5561 18.4398 14.2831C18.4512 12.8781 17.267 11.712 15.8437 11.7006H15.8324Z" fill="#EC1111"/>
<path d="M16.8399 4.72107C16.8399 4.98273 16.7204 5.17613 16.5382 5.35246C14.7448 7.14996 12.9515 8.94177 11.1525 10.7393C9.2168 12.679 7.27544 14.6187 5.34546 16.5584C5.13481 16.7688 4.9014 16.894 4.59966 16.8428C4.29223 16.7916 4.09297 16.6153 3.99619 16.3252C3.8994 16.0464 3.94495 15.7848 4.14421 15.5629C4.18406 15.5174 4.22391 15.4776 4.26376 15.4378C7.98708 11.712 11.7104 7.98614 15.428 4.25463C15.6557 4.02709 15.9005 3.89058 16.2307 3.96452C16.5894 4.04416 16.8399 4.35133 16.8456 4.72107H16.8399Z" fill="#EC1111"/>
<path d="M8.92532 7.55949C8.27061 7.54811 7.70698 7.31489 7.24584 6.84845C6.46019 6.05778 5.67453 5.26711 4.89457 4.47644C4.56437 4.14083 4.55868 3.65164 4.87749 3.34447C5.19631 3.0373 5.66315 3.04868 5.99335 3.3786C6.75054 4.14083 7.50773 4.90306 8.26491 5.66529C8.70328 6.10898 9.12458 6.11466 9.56295 5.67098C10.3315 4.90306 11.0944 4.12945 11.8687 3.36154C12.2729 2.96336 12.9162 3.07143 13.1382 3.57769C13.2749 3.88486 13.235 4.18634 12.9959 4.43093C12.1533 5.28418 11.3107 6.13173 10.4511 6.96791C10.0298 7.37746 9.50032 7.54242 8.91962 7.55949H8.92532Z" fill="#EC1111"/>
<path d="M6.84255 9.63005C6.83116 10.2444 6.62621 10.7905 6.18783 11.2398C5.6356 11.8087 5.07767 12.3775 4.51405 12.9349C4.18385 13.2705 3.71132 13.2762 3.3982 12.9691C3.07938 12.6562 3.08507 12.1727 3.41528 11.8371C3.93904 11.3024 4.46851 10.7677 4.99228 10.233C5.3851 9.82914 5.3851 9.39683 4.99228 8.99865C4.46281 8.46395 3.92766 7.92925 3.3982 7.38886C3.17047 7.16133 3.10215 6.88261 3.20463 6.58113C3.30711 6.28534 3.52345 6.109 3.83087 6.06349C4.07568 6.02367 4.29771 6.09762 4.4742 6.27396C5.06629 6.86554 5.65837 7.44575 6.23338 8.05439C6.64329 8.4867 6.83116 9.0214 6.83685 9.63573L6.84255 9.63005Z" fill="#EC1111"/>
<path d="M15.8269 13.2764C16.3849 13.2764 16.8005 13.703 16.7948 14.2605C16.7948 14.8123 16.3564 15.2332 15.8042 15.2275C15.2804 15.2218 14.842 14.7668 14.8477 14.2377C14.8534 13.703 15.2918 13.2707 15.8269 13.2764Z" fill="#EC1111"/>
</g>
<defs>
<clipPath id="clip0_158_840">
<rect width="20" height="20" fill="white"/>
</clipPath>
</defs>
</svg>
