<svg width="24" height="24" viewBox="0 0 24 24" fill="none" xmlns="http://www.w3.org/2000/svg">
<g clip-path="url(#clip0_148_607)">
<path d="M0 11.9919C0.0853125 11.6942 0.144375 11.3862 0.259687 11.1003C0.925781 9.44702 2.91422 8.67406 4.53234 9.42827C4.60172 9.46062 4.67203 9.49202 4.78125 9.54171C4.78125 9.43577 4.78031 9.35515 4.78125 9.27452C4.79344 8.47999 4.73813 7.67702 4.83047 6.89187C5.205 3.71796 6.90422 1.50171 9.91875 0.447024C14.6156 -1.19641 18.7847 1.94562 19.7362 5.73124C19.8736 6.27781 19.9528 6.85343 19.957 7.4164C19.9786 10.332 19.9683 13.2481 19.9673 16.1637C19.9673 16.768 19.5708 17.1912 19.0177 17.1847C18.4748 17.1786 18.0933 16.76 18.0933 16.1637C18.0923 13.2711 18.098 10.3789 18.0909 7.48624C18.0844 4.71874 15.8306 2.2264 13.0772 1.9264C9.95766 1.58656 7.23047 3.64859 6.72141 6.7414C6.67125 7.04749 6.66047 7.36202 6.65812 7.67327C6.65062 8.78046 6.65672 9.88718 6.65484 10.9944C6.65344 11.8442 5.94422 12.2722 5.19094 11.8794C4.76203 11.6558 4.33687 11.4261 3.90562 11.2076C3.1875 10.8444 2.45438 11.0192 2.07938 11.6361C1.69125 12.275 1.88156 13.0536 2.50969 13.5359C3.88313 14.5906 5.24484 15.6603 6.61219 16.723C6.91219 16.9564 7.04063 17.2583 7.03453 17.6384C7.02844 18.0111 7.01719 18.3912 7.07719 18.7569C7.21828 19.6184 7.97625 20.2648 8.85188 20.2677C11.6953 20.2775 14.5388 20.2733 17.3822 20.2667C17.4853 20.2667 17.6016 20.1997 17.6892 20.1341C18.4575 19.5575 19.2422 19.0137 20.1197 18.6055C21.727 17.8573 23.6105 18.9041 23.9498 20.6356C23.963 20.7027 23.9827 20.7683 23.9995 20.8344V21.4892C23.9831 21.5553 23.9644 21.6209 23.9498 21.687C23.7689 22.52 23.3273 23.1762 22.5764 23.5873C22.2628 23.7589 21.9014 23.8442 21.562 23.9684H20.9058C20.6691 23.893 20.4267 23.8325 20.197 23.7397C19.3195 23.3867 18.5634 22.8345 17.8069 22.2814C17.6981 22.2017 17.5416 22.1497 17.407 22.1492C14.603 22.1417 11.7984 22.1422 8.99438 22.145C8.49656 22.1455 8.01469 22.07 7.55109 21.89C6.09562 21.3251 5.15297 19.9484 5.16422 18.3612C5.16656 18.05 5.08312 17.8475 4.83234 17.6591C3.69703 16.8069 2.58094 15.9289 1.44563 15.0762C0.887812 14.6572 0.449531 14.1561 0.211406 13.4984C0.122344 13.2523 0.069375 12.9936 0 12.7405C0 12.4911 0 12.2412 0 11.9919ZM19.4733 21.1039L19.4658 21.2319C19.9856 21.5061 20.498 21.7953 21.03 22.0442C21.1641 22.107 21.3708 22.0756 21.5241 22.0259C22.0167 21.8652 22.2389 21.3026 22.05 20.7987C21.9112 20.4275 21.3778 20.0558 20.8758 20.3244C20.4042 20.5766 19.9406 20.8437 19.4738 21.1044L19.4733 21.1039Z" fill="white"/>
<path d="M12.5599 17.8398C11.6154 17.8398 10.6714 17.8459 9.72682 17.8375C9.0537 17.8318 8.62901 17.259 8.81229 16.6262C8.93042 16.2179 9.27636 15.9718 9.75448 15.97C10.6596 15.9662 11.5653 15.9686 12.4704 15.969C13.4459 15.969 14.4214 15.9625 15.3968 15.9718C16.0718 15.9779 16.4942 16.5484 16.3114 17.1831C16.1932 17.5928 15.8487 17.8379 15.3696 17.8393C14.4331 17.8426 13.4965 17.8403 12.5599 17.8403V17.8398Z" fill="white"/>
</g>
<defs>
<clipPath id="clip0_148_607">
<rect width="24" height="24" fill="white"/>
</clipPath>
</defs>
</svg>
