<svg width="13" height="20" viewBox="0 0 13 20" fill="none" xmlns="http://www.w3.org/2000/svg">
<g clip-path="url(#clip0_158_851)">
<path d="M9.1807 19.9902H3.5957C3.5607 19.9805 3.5207 19.961 3.4857 19.9561C1.5157 19.7024 0.0107031 18.0732 0.00570312 16.1415C0.000703125 12.0439 0.000703125 7.94634 0.00570312 3.84878C0.0107031 2.21951 1.1007 0.75122 2.6757 0.229268C2.9757 0.131707 3.2907 0.0780488 3.5957 0C5.4557 0 7.3207 0 9.1807 0C9.2157 0.0097561 9.2557 0.0292683 9.2907 0.0341463C10.9457 0.24878 12.2707 1.41463 12.6607 3.00488C12.7007 3.17561 12.7357 3.34634 12.7707 3.5122V16.4732C12.7607 16.5073 12.7407 16.5463 12.7357 16.5805C12.4957 18.0878 11.6507 19.1415 10.2107 19.7171C9.8857 19.8488 9.5257 19.8976 9.1807 19.9854V19.9902ZM11.1757 10.0146C11.1757 8.00488 11.1757 5.99512 11.1757 3.98537C11.1757 2.58049 10.1357 1.56098 8.6957 1.56098C7.1607 1.56098 5.6257 1.56098 4.0907 1.56098C2.6407 1.56098 1.6007 2.57561 1.6007 3.99024C1.6007 7.99024 1.6007 11.9902 1.6007 15.9951C1.6007 17.4146 2.6407 18.4293 4.0857 18.4293C5.6157 18.4293 7.1457 18.4293 8.6707 18.4293C10.1357 18.4293 11.1707 17.4195 11.1707 15.9902C11.1707 14 11.1707 12.0098 11.1707 10.0195L11.1757 10.0146Z" fill="#EC1111"/>
<path d="M6.39412 3.12207C6.65412 3.12207 6.91412 3.12207 7.16912 3.12207C7.63412 3.12695 7.98412 3.46841 7.97912 3.91231C7.97912 4.34158 7.62912 4.67817 7.17412 4.68305C6.64912 4.68792 6.12412 4.68792 5.59912 4.68305C5.13412 4.68305 4.78412 4.33183 4.78912 3.8928C4.78912 3.46353 5.13912 3.12695 5.59412 3.12207C5.85912 3.12207 6.12412 3.12207 6.38912 3.12207H6.39412Z" fill="#EC1111"/>
<path d="M6.38906 16.8683C6.12906 16.8683 5.86906 16.8683 5.61406 16.8683C5.14406 16.8634 4.79406 16.5317 4.78906 16.0927C4.78906 15.6537 5.13906 15.3122 5.60406 15.3073C6.12906 15.3073 6.65406 15.3025 7.17906 15.3073C7.63406 15.3073 7.97906 15.6488 7.98406 16.083C7.98406 16.5122 7.63906 16.8586 7.18906 16.8683C6.92406 16.8732 6.65906 16.8683 6.39406 16.8683H6.38906Z" fill="#EC1111"/>
</g>
<defs>
<clipPath id="clip0_158_851">
<rect width="13" height="20" fill="white"/>
</clipPath>
</defs>
</svg>
