<svg width="46" height="46" viewBox="0 0 46 46" fill="none" xmlns="http://www.w3.org/2000/svg">
<g clip-path="url(#clip0_148_679)">
<path d="M0 21.7063C0.112086 21.1987 0.200858 20.6848 0.341637 20.1844C1.42304 16.3328 4.8986 13.6662 8.88975 13.6393C11.3251 13.6222 13.7614 13.6222 16.1968 13.6393C21.1116 13.6734 25.0785 17.6319 25.1018 22.55C25.1243 27.3773 25.1251 32.2046 25.1018 37.031C25.0803 41.5142 21.7402 45.2535 17.2872 45.8411C17.202 45.8527 17.1204 45.8932 17.0379 45.9201H8.07018C7.98678 45.8932 7.90608 45.8545 7.8209 45.8411C4.00819 45.2095 1.5145 43.0487 0.344327 39.3705C0.186511 38.8764 0.112982 38.3562 0 37.8486C0 32.4678 0 27.0871 0 21.7063ZM21.5205 29.8228C21.5205 27.4474 21.525 25.0719 21.5196 22.6964C21.5124 19.5887 19.1496 17.2294 16.039 17.2231C13.7238 17.2186 11.4085 17.2195 9.0933 17.2231C5.954 17.2285 3.59123 19.5833 3.58854 22.7171C3.58495 27.4231 3.58495 32.1291 3.58854 36.8351C3.59123 39.9689 5.9522 42.3255 9.0915 42.3318C11.3915 42.3363 13.6924 42.3354 15.9924 42.3318C19.1631 42.3273 21.5151 39.9788 21.5196 36.8136C21.5232 34.483 21.5196 32.1525 21.5196 29.8219L21.5205 29.8228Z" fill="#E53A36"/>
<path d="M45.9099 31.3916C45.8265 31.7833 45.7521 32.1768 45.6588 32.5659C44.6958 36.5882 41.1494 39.4281 37.022 39.4587C34.4377 39.4775 31.8526 39.4659 29.2674 39.4623C28.1726 39.4605 27.3691 38.7049 27.3584 37.6861C27.3476 36.6538 28.1645 35.8793 29.28 35.8775C31.7754 35.8739 34.27 35.8775 36.7655 35.8757C39.9891 35.8721 42.3223 33.5299 42.3232 30.2964C42.325 23.258 42.325 16.2197 42.3232 9.18223C42.3232 5.9218 39.9927 3.59305 36.7323 3.59215C32.0857 3.59035 27.4391 3.59035 22.7924 3.59215C19.6271 3.59305 17.3289 5.81309 17.216 8.97289C17.1792 10.0007 16.4062 10.7689 15.4145 10.7644C14.4075 10.7599 13.6373 9.95937 13.631 8.9109C13.605 4.49508 17.0797 0.582382 21.4752 0.0846472C21.8599 0.0406238 22.2491 0.00828002 22.6364 0.00738158C27.388 0.00199095 32.1386 -0.00339967 36.8901 0.00648314C41.1521 0.0154675 44.7075 2.84555 45.6857 6.98734C45.7709 7.34762 45.8364 7.71238 45.9117 8.07535V31.3916H45.9099Z" fill="#E53A36"/>
<path d="M29.9981 17.9588C29.0548 17.9013 28.5141 17.5977 28.1877 16.9777C27.8613 16.3587 27.9052 15.7388 28.2836 15.1503C28.3634 15.0263 28.4656 14.9131 28.5706 14.808C30.9145 12.4604 33.2584 10.1137 35.6069 7.77056C36.2139 7.16591 36.942 7.01946 37.6567 7.33032C38.3373 7.62681 38.8152 8.30782 38.7121 9.03915C38.6529 9.45692 38.4763 9.93759 38.1902 10.2305C35.8292 12.6446 33.4405 15.0317 31.0293 17.3964C30.7118 17.7073 30.2214 17.8411 29.9972 17.9588H29.9981Z" fill="#E53A36"/>
<path d="M33.3111 25.1141C32.1768 25.1141 31.0425 25.1167 29.9082 25.1141C28.7811 25.1105 27.9776 24.3603 27.9785 23.3199C27.9785 22.2795 28.7819 21.5293 29.91 21.5284C32.2082 21.5257 34.5073 21.5257 36.8055 21.5284C37.9335 21.5302 38.7361 22.2795 38.7361 23.3208C38.7361 24.3612 37.9326 25.1096 36.8046 25.1132C35.6407 25.1167 34.4759 25.1132 33.312 25.1132L33.3111 25.1141Z" fill="#E53A36"/>
<path d="M33.312 32.2879C32.1777 32.2879 31.0434 32.2906 29.9091 32.2879C28.7819 32.2843 27.9785 31.5341 27.9785 30.4946C27.9785 29.4533 28.7819 28.704 29.9091 28.7022C32.2073 28.6995 34.5064 28.6995 36.8046 28.7022C37.9326 28.704 38.7352 29.4524 38.7352 30.4946C38.7352 31.535 37.9326 32.2843 36.8046 32.2879C35.6407 32.2915 34.4759 32.2879 33.312 32.2879Z" fill="#E53A36"/>
<path d="M31.5617 8.97379C31.5599 9.95938 30.752 10.7644 29.7665 10.7635C28.7802 10.7617 27.9767 9.95489 27.9785 8.9675C27.9803 7.98012 28.7864 7.17692 29.7737 7.17871C30.76 7.18051 31.5635 7.98731 31.5626 8.97379H31.5617Z" fill="#E53A36"/>
<path d="M38.7345 16.1612C38.7273 17.1459 37.9131 17.9464 36.9268 17.9383C35.9413 17.9303 35.1433 17.1172 35.1504 16.1298C35.1585 15.1433 35.9691 14.3455 36.9582 14.3536C37.9445 14.3617 38.7417 15.173 38.7345 16.1612Z" fill="#E53A36"/>
<path d="M12.5496 24.3963C11.4001 24.3963 10.2514 24.399 9.10187 24.3963C7.97653 24.3927 7.1731 23.6389 7.17579 22.5985C7.17848 21.5581 7.98101 20.8115 9.11084 20.8106C11.409 20.8079 13.7081 20.8079 16.0064 20.8106C17.1326 20.8124 17.9351 21.5653 17.9333 22.6066C17.9315 23.647 17.129 24.3927 15.9983 24.3954C14.8487 24.399 13.7001 24.3954 12.5505 24.3954L12.5496 24.3963Z" fill="#E53A36"/>
<path d="M8.97364 31.5691C7.98729 31.5727 7.17848 30.7686 7.17579 29.7831C7.1731 28.7948 7.97384 27.988 8.96109 27.9844C9.94834 27.9817 10.7563 28.7831 10.7598 29.7696C10.7634 30.7561 9.96 31.5656 8.97454 31.5691H8.97364Z" fill="#E53A36"/>
<path d="M16.1357 27.9844C17.1229 27.9826 17.9299 28.7849 17.9317 29.7723C17.9344 30.7588 17.1301 31.5673 16.1437 31.5691C15.1574 31.5709 14.3495 30.7668 14.3477 29.7804C14.3459 28.7921 15.1475 27.9862 16.1348 27.9844H16.1357Z" fill="#E53A36"/>
<path d="M8.9611 38.7444C7.97474 38.7417 7.17221 37.9332 7.17579 36.9458C7.17938 35.9584 7.9864 35.157 8.97365 35.1597C9.96 35.1633 10.7625 35.9701 10.759 36.9583C10.7563 37.9439 9.94655 38.748 8.9611 38.7444Z" fill="#E53A36"/>
<path d="M16.1304 35.1597C17.1177 35.1543 17.9274 35.9548 17.9328 36.9413C17.9382 37.9287 17.1374 38.7391 16.152 38.7445C15.1656 38.7499 14.3541 37.9484 14.3496 36.9629C14.3451 35.9737 15.1432 35.1651 16.1304 35.1597Z" fill="#E53A36"/>
</g>
<defs>
<clipPath id="clip0_148_679">
<rect width="46" height="46" fill="white"/>
</clipPath>
</defs>
</svg>
