<svg width="152" height="155" viewBox="0 0 152 155" fill="none" xmlns="http://www.w3.org/2000/svg">
<path d="M76.4998 0C77.195 0 77.8902 0 78.5854 0C78.7109 0.0386944 78.8364 0.0918991 78.9668 0.10641C81.3613 0.430475 83.471 1.393 85.1221 3.15843C89.1387 7.4535 97.1768 9.66876 103.211 7.75822C108.686 6.02181 114.518 9.04965 116.41 14.491C117.212 16.7982 118.423 18.8297 120.089 20.5902C122.961 23.6278 126.346 25.7559 130.541 26.4573C134.891 27.1876 137.778 29.6931 139.245 33.8382C139.854 35.5505 139.694 37.3207 139.631 39.1103C139.4 45.8383 141.939 51.2991 147.39 55.3088C149.562 56.9049 151.015 58.9654 151.667 61.5821C151.792 62.0851 151.889 62.593 152 63.1009C152 63.7974 152 64.4939 152 65.1904C151.966 65.3161 151.913 65.4419 151.899 65.5725C151.696 67.2315 151.097 68.7406 150.199 70.1481C149.876 70.6511 149.562 71.1686 149.33 71.7152C146.95 77.3984 146.931 83.0091 149.9 88.5086C150.73 90.0467 151.266 91.6718 151.29 93.4227C151.343 97.6501 149.494 100.789 146.004 103.183C140.322 107.077 137.531 112.601 137.821 119.493C138.043 124.683 134.784 129.462 129.759 130.719C128.755 130.971 127.688 130.985 126.684 131.242C120.514 132.809 115.947 136.359 113.456 142.313C111.259 147.556 105.461 150.308 100.102 148.48C97.6499 147.643 95.1685 147.276 92.5905 147.537C88.4725 147.958 84.7648 149.312 81.6606 152.166C77.4412 156.05 70.8273 155.953 66.8541 151.808C62.7892 147.571 54.7994 145.302 48.76 147.213C43.2757 148.949 37.4584 145.931 35.5563 140.49C34.75 138.182 33.5431 136.146 31.8776 134.386C28.9471 131.29 25.4954 129.162 21.1987 128.48C15.4296 127.566 11.4999 122.11 12.2916 116.32C12.4365 115.237 12.4606 114.105 12.3158 113.026C11.5482 107.435 9.0764 102.864 4.41769 99.4881C0.792094 96.8617 -0.530691 93.1519 0.188634 88.731C0.430018 87.2413 1.15417 85.9499 1.8735 84.6343C5.07908 78.8059 5.23839 72.8518 2.2935 66.8881C1.45349 65.1807 0.714851 63.483 0.685885 61.5676C0.623125 57.3402 2.46247 54.1866 5.95289 51.7973C11.6399 47.9036 14.4351 42.3897 14.1551 35.4973C13.9379 30.2203 17.1917 25.4899 22.3091 24.2275C23.3132 23.9808 24.3802 23.9615 25.3843 23.7003C31.53 22.1187 36.0583 18.5588 38.5398 12.6192C40.7122 7.40997 46.5344 4.66267 51.8593 6.47647C54.3311 7.31807 56.8319 7.69534 59.4243 7.42448C63.5182 6.99885 67.2307 5.66873 70.2963 2.81018C71.5611 1.63 73.0432 0.827092 74.7136 0.372433C75.2929 0.227329 75.9012 0.125757 76.4998 0Z" fill="#DBA250"/>
</svg>
