<svg width="13" height="14" viewBox="0 0 13 14" fill="none" xmlns="http://www.w3.org/2000/svg">
<g opacity="0.3" clip-path="url(#clip0_158_888)">
<path d="M12.8044 12.7507L9.59828 9.28491C10.4208 8.26801 10.8719 6.98547 10.8719 5.65313C10.8759 2.53602 8.43642 0 5.43796 0C2.4395 0 0 2.53602 0 5.65313C0 8.77023 2.4395 11.3063 5.43796 11.3063C6.56388 11.3063 7.6379 10.9535 8.55221 10.2852L11.7822 13.7759C11.918 13.9211 12.0977 14 12.2933 14C12.477 14 12.6526 13.9253 12.7844 13.7925C13.0679 13.5102 13.0759 13.0412 12.8044 12.7507ZM5.43796 1.47347C7.65387 1.47347 9.45854 3.34954 9.45854 5.65313C9.45854 7.95672 7.65387 9.83279 5.43796 9.83279C3.22205 9.83279 1.41738 7.95672 1.41738 5.65313C1.41738 3.34954 3.22205 1.47347 5.43796 1.47347Z" fill="#464451"/>
</g>
<defs>
<clipPath id="clip0_158_888">
<rect width="13" height="14" fill="white"/>
</clipPath>
</defs>
</svg>
