<svg width="24" height="24" viewBox="0 0 24 24" fill="none" xmlns="http://www.w3.org/2000/svg">
<g clip-path="url(#clip0_148_613)">
<path d="M0 19.7474C0 14.5696 0 9.39176 0 4.21442C0.0140625 4.17036 0.0346875 4.1277 0.04125 4.0827C0.366094 1.73708 2.31047 0.0102005 4.66828 0.00598172C9.55641 -0.00245578 14.4445 -0.00151828 19.3327 0.00598172C21.4509 0.00926297 23.28 1.42442 23.8369 3.46583C23.9039 3.71192 23.9461 3.96458 24 4.21442V19.7474C23.9859 19.791 23.9653 19.8332 23.9587 19.8777C23.6737 21.6852 22.6856 22.9471 20.9902 23.6366C20.6072 23.7922 20.1853 23.8536 19.7812 23.9582H4.21875C4.17516 23.9441 4.13297 23.924 4.08844 23.9169C2.09531 23.5874 0.791719 22.46 0.18 20.541C0.0975 20.2832 0.0590625 20.0122 0 19.7474ZM11.9752 22.0869C14.3888 22.0869 16.8019 22.0879 19.2155 22.0869C20.9025 22.086 22.1241 20.8654 22.1245 19.1797C22.1255 14.3854 22.125 9.59098 22.1245 4.79614C22.1245 3.09317 20.9077 1.87536 19.2061 1.87536C14.4028 1.87489 9.59906 1.87489 4.79578 1.87536C3.09281 1.87536 1.87547 3.0927 1.875 4.79379C1.87453 9.58067 1.875 14.3671 1.875 19.1539C1.875 20.8724 3.08766 22.0864 4.80516 22.0869C7.19531 22.0879 9.58547 22.0869 11.9752 22.0869Z" fill="white"/>
<path d="M11.0618 12.9163C10.7956 12.9163 10.5621 12.9163 10.3287 12.9163C8.46213 12.9163 6.59556 12.9187 4.729 12.9149C4.04181 12.9135 3.58666 12.2976 3.80181 11.6737C3.93728 11.2818 4.28791 11.0456 4.74588 11.0451C6.69072 11.0437 8.6351 11.0446 10.5799 11.0446C10.7281 11.0446 10.8762 11.0446 11.0623 11.0446C11.0623 10.9476 11.0623 10.8585 11.0623 10.769C11.0623 8.75009 11.0613 6.73119 11.0632 4.71228C11.0632 4.30869 11.2423 4.00541 11.6121 3.83478C11.9735 3.66791 12.3157 3.72697 12.6167 3.98103C12.8599 4.18634 12.9401 4.4615 12.9396 4.77509C12.9359 6.76306 12.9378 8.75056 12.9378 10.7385V11.0451C13.0437 11.0451 13.1346 11.0451 13.2251 11.0451C15.2403 11.0451 17.2549 11.0432 19.2701 11.046C19.9573 11.047 20.4124 11.662 20.1982 12.2863C20.0642 12.6768 19.7117 12.9154 19.2546 12.9159C17.4818 12.9173 15.709 12.9163 13.9362 12.9163C13.616 12.9163 13.2963 12.9163 12.9382 12.9163C12.9382 13.0129 12.9382 13.1024 12.9382 13.192C12.9382 15.2029 12.9401 17.2143 12.9373 19.2253C12.9363 19.9167 12.3331 20.3727 11.7049 20.166C11.3093 20.0357 11.0646 19.6846 11.0642 19.2323C11.0623 17.9071 11.0632 16.582 11.0632 15.2568C11.0632 14.4867 11.0632 13.716 11.0632 12.9168L11.0618 12.9163Z" fill="white"/>
<path d="M7.50049 5.61789C7.81174 5.61789 8.09862 5.61602 8.38549 5.61789C8.9569 5.62211 9.37315 6.01492 9.37455 6.55023C9.37596 7.08508 8.95971 7.48351 8.39112 7.48867C8.10377 7.49101 7.81643 7.48867 7.50049 7.48867C7.50049 7.78258 7.50143 8.06008 7.50049 8.33758C7.49815 8.94273 7.10674 9.36461 6.55362 9.35945C6.01221 9.35476 5.6283 8.9343 5.62596 8.34227C5.62502 8.06992 5.62596 7.79758 5.62596 7.4882C5.30205 7.4882 4.98565 7.49617 4.66971 7.4868C4.02049 7.46758 3.58971 6.83758 3.80674 6.23477C3.93893 5.8682 4.28112 5.62539 4.68846 5.61883C4.99127 5.61367 5.29455 5.61789 5.62596 5.61789C5.62596 5.31602 5.62455 5.03055 5.62596 4.74555C5.62971 4.16102 6.02721 3.74242 6.5719 3.74711C7.10768 3.7518 7.4958 4.16617 7.50002 4.74039C7.50237 5.0207 7.50002 5.30055 7.50002 5.61836L7.50049 5.61789Z" fill="white"/>
<path d="M6.56022 16.1133C6.7974 15.8663 6.991 15.653 7.19678 15.4519C7.59569 15.0624 8.16569 15.0502 8.53928 15.4158C8.92178 15.7899 8.91803 16.3655 8.52194 16.7733C8.32131 16.9796 8.10709 17.1727 7.84459 17.4239C8.101 17.6593 8.3499 17.8594 8.56412 18.091C9.04787 18.615 8.82006 19.4372 8.14365 19.6271C7.7935 19.7255 7.47709 19.6402 7.21694 19.3847C7.006 19.1771 6.80397 18.9605 6.57569 18.7252C6.33334 18.9638 6.1149 19.1921 5.88194 19.4053C5.356 19.8858 4.53334 19.6669 4.33881 18.9928C4.23803 18.6441 4.31959 18.3277 4.576 18.0671C4.78787 17.8514 5.00912 17.6447 5.26178 17.3996C5.03397 17.1853 4.82631 16.9993 4.62944 16.8024C4.21178 16.3852 4.18975 15.8143 4.56944 15.4289C4.94865 15.0446 5.5285 15.0591 5.94569 15.4711C6.14444 15.6675 6.3324 15.8752 6.55928 16.1133H6.56022Z" fill="white"/>
<path d="M15.5273 20.2157C15.1968 20.1984 14.9137 20.0423 14.7398 19.7207C14.571 19.4081 14.5832 19.0907 14.7702 18.7875C14.8227 18.7021 14.893 18.6257 14.9638 18.5545C16.1723 17.346 17.3826 16.14 18.591 14.9315C18.8657 14.6568 19.1816 14.5298 19.5679 14.6404C20.2091 14.8242 20.458 15.577 20.0535 16.1062C20.0062 16.1681 19.9509 16.2239 19.896 16.2787C18.6979 17.4754 17.4984 18.6703 16.3016 19.8684C16.0944 20.076 15.8605 20.212 15.5273 20.2153V20.2157Z" fill="white"/>
<path d="M17.4413 7.48944C16.8328 7.48944 16.2239 7.49178 15.6155 7.48897C15.0441 7.48616 14.6274 7.09194 14.625 6.5585C14.6227 6.02319 15.0389 5.62053 15.6061 5.61913C16.8234 5.61631 18.0403 5.61678 19.2577 5.61913C19.8295 5.62006 20.2458 6.01475 20.2481 6.54913C20.2505 7.08397 19.8342 7.48569 19.267 7.48897C18.6586 7.49225 18.0497 7.48991 17.4413 7.48991V7.48944Z" fill="white"/>
</g>
<defs>
<clipPath id="clip0_148_613">
<rect width="24" height="24" fill="white"/>
</clipPath>
</defs>
</svg>
