<svg width="60" height="22" viewBox="0 0 60 22" fill="none" xmlns="http://www.w3.org/2000/svg">
<g opacity="0.5" clip-path="url(#clip0_228_1434)">
<g opacity="0.2">
<path d="M0 4.74571C0 5.17524 0.346552 5.51571 0.781034 5.51571H6.15517C6.58965 5.51571 6.93621 5.85619 6.93621 6.28571V21.1776C6.93621 21.6071 7.28276 21.9476 7.71724 21.9476H12.7138C13.1483 21.9476 13.4948 21.6071 13.4948 21.1776V6.25952C13.4948 5.83 13.8414 5.48952 14.2759 5.48952H19.65C20.0845 5.48952 20.431 5.14905 20.431 4.71952V0.77C20.431 0.340476 20.0845 0 19.65 0H0.868965C0.346552 0 0 0.340476 0 0.77V4.74048V4.74571Z" fill="#464451"/>
<path d="M34.9765 5.30619C36.3213 5.19095 37.842 5.19095 38.3282 5.30619C38.8144 5.39 39.2178 5.44762 39.2178 5.39C39.2178 5.33238 39.2178 4.70381 39.2489 3.98619C39.2799 3.26857 39.3627 2.3781 39.5075 2.00619C39.6523 1.63429 39.8799 1.20476 40.0506 1.0319C40.2213 0.859048 40.4541 0.66 40.5678 0.570952C40.6816 0.487143 40.9972 0.314286 41.2558 0.199048C41.5144 0.0838095 41.5403 0 41.3127 0H24.6058C23.9489 0 23.4316 0.345714 23.4316 0.775238V21.031C23.4316 21.5181 23.773 21.9476 24.2334 21.9476H30.1041C30.1351 21.9476 29.9903 21.4029 29.7885 20.7114C29.5868 20.0252 29.4472 18.6738 29.4472 17.6995C29.4782 16.7252 29.5351 15.9186 29.561 15.9186H32.111C33.4558 15.9186 34.8316 15.8348 35.1161 15.7457C35.4006 15.6305 35.6903 15.3162 35.7472 15.0019C35.8041 14.6876 35.8351 13.8233 35.8351 13.0533V11.5919C35.8351 11.5343 35.6075 11.5081 35.292 11.5081H34.2058C33.8903 11.5081 33.0316 11.3352 32.2868 11.1624C31.542 10.9633 30.6265 10.3295 30.2799 9.78476C29.9385 9.24 29.5661 8.15048 29.4472 7.43286C29.3592 6.71524 29.2765 5.91381 29.2765 5.68333C29.2765 5.45286 29.3075 5.25381 29.3334 5.25381H29.8765C30.1351 5.25381 30.8489 5.31143 31.423 5.36905C31.9972 5.42667 33.5696 5.39524 34.9454 5.28524L34.9765 5.31143V5.30619Z" fill="#464451"/>
<path d="M53.085 2.34143C52.6557 1.05286 51.5695 0 50.685 0H45.6264C45.5953 0 45.4246 0.0576191 45.285 0.115238C45.1402 0.172857 44.9126 0.345714 44.8298 0.487143C44.7419 0.628571 44.6591 0.885238 44.6591 1.0319C44.6591 1.17857 44.5712 1.85952 44.5143 2.54571C44.4574 3.2319 44.4264 4.6881 44.4574 5.86143C44.4884 7.03476 44.2298 8.94667 43.8574 10.12C43.485 11.3195 42.6574 12.891 42.0264 13.6662C41.3953 14.4362 40.3971 15.3529 39.8281 15.751C39.2591 16.149 38.7729 16.9243 38.7419 17.5214C38.7108 18.1238 38.5712 19.1243 38.4574 19.7529C38.3436 20.3814 38.2298 20.8948 38.1988 20.9262C38.1988 20.9262 38.085 21.1567 37.9712 21.4395C37.8574 21.7276 37.8264 21.9267 37.8833 21.9267H43.4281C43.7126 21.9267 44.0281 21.6962 44.1419 21.3819C44.2298 21.0938 44.3436 20.6695 44.4005 20.4967C44.4574 20.2976 44.5712 19.8943 44.6591 19.6114C44.747 19.3233 45.1143 19.0981 45.5177 19.0981H52.035C52.3764 19.0981 52.7488 19.3862 52.8367 19.7529C52.9505 20.0933 53.0643 20.4967 53.0953 20.6381C53.1264 20.7795 53.2402 21.1252 53.3229 21.4081C53.4108 21.6962 53.7522 21.9529 54.0936 21.9529H58.9246C59.3229 21.9529 59.5815 21.6648 59.4677 21.2981C59.3539 20.9262 58.8988 19.5852 58.4695 18.2967L53.0953 2.34667L53.085 2.34143ZM47.0281 13.9752C46.6557 13.9752 46.4591 13.6348 46.5729 13.2314C46.6867 12.8333 47.116 11.4295 47.5143 10.1148L47.5453 10.0571C47.9436 8.76857 48.3729 7.31238 48.5177 6.82524C48.6626 6.3381 48.8902 6.36952 49.0298 6.85143C49.1746 7.33857 49.5988 8.79476 50.0022 10.0833C50.4005 11.3719 50.8039 12.7705 50.9177 13.1686C51.0315 13.5667 50.8867 13.9124 50.5764 13.9124H48.8643C48.2333 13.97 47.4057 13.97 47.0333 13.97L47.0281 13.9752Z" fill="#464451"/>
<path d="M42.057 2.4418C42.3881 2.4418 42.657 2.16942 42.657 1.83418C42.657 1.49894 42.3881 1.22656 42.057 1.22656C41.726 1.22656 41.457 1.49894 41.457 1.83418C41.457 2.16942 41.726 2.4418 42.057 2.4418Z" fill="#464451"/>
</g>
</g>
<defs>
<clipPath id="clip0_228_1434">
<rect width="60" height="22" fill="white"/>
</clipPath>
</defs>
</svg>
