<svg width="17" height="14" viewBox="0 0 17 14" fill="none" xmlns="http://www.w3.org/2000/svg">
<g opacity="0.4" clip-path="url(#clip0_148_1087)">
<path d="M17 0.584729C16.9132 0.980695 16.8191 1.37322 16.736 1.76919C16.1862 4.40667 15.6364 7.04415 15.0866 9.68163C14.837 10.873 14.5874 12.0643 14.3451 13.2591C14.2113 13.9133 13.383 14.2266 12.826 13.8238C10.804 12.3535 8.78574 10.8799 6.76383 9.40618C6.73851 9.38896 6.71319 9.36486 6.67702 9.33387C6.80723 9.22024 6.93021 9.1135 7.05681 9.00677C9.44042 6.96151 11.8277 4.9197 14.2113 2.87101C14.3126 2.78493 14.4066 2.68163 14.4753 2.57145C14.5621 2.43028 14.4826 2.3201 14.3126 2.35453C14.1606 2.38552 14.0051 2.44405 13.8749 2.52324C12.7247 3.21188 11.5781 3.91085 10.4279 4.60293C8.45298 5.79771 6.47809 6.98906 4.50681 8.18729C4.39106 8.25615 4.29702 8.26648 4.17043 8.22516C3.02383 7.8533 1.87723 7.48832 0.730638 7.1199C0.405106 7.0166 0.137447 6.84444 0 6.52767V6.30731C0.141064 6.04907 0.379787 5.9079 0.654681 5.80804C5.52681 3.98316 10.4026 2.16171 15.2783 0.343706C15.5966 0.226637 15.9185 0.109569 16.2477 0.0303758C16.6419 -0.0625903 16.8481 0.0441485 17 0.360922V0.581286V0.584729Z" fill="#464451"/>
</g>
<defs>
<clipPath id="clip0_148_1087">
<rect width="17" height="14" fill="white"/>
</clipPath>
</defs>
</svg>
