<svg width="32" height="31" viewBox="0 0 32 31" fill="none" xmlns="http://www.w3.org/2000/svg">
<g clip-path="url(#clip0_148_1703)">
<path d="M30.6756 16.1379L26.6578 8.3879C25.8311 6.96191 24 6.47477 22.56 7.29848C22.1067 7.56419 21.7423 7.92733 21.4934 8.35248C20.5956 7.18334 18.9334 6.83791 17.6178 7.59962C17.1645 7.86533 16.8 8.22848 16.5511 8.65362C15.6534 7.49334 13.9911 7.13905 12.6756 7.90076C12.2311 8.15762 11.8756 8.5119 11.6178 8.92819L9.65336 5.53591C8.82669 4.10992 6.99558 3.62277 5.55558 4.44649C4.12447 5.2702 3.63558 7.09476 4.46225 8.52076L12.0089 21.5407L5.63558 20.8676C3.92003 20.6639 2.29336 21.7622 1.84003 23.4273C1.50225 24.6761 2.24892 25.9604 3.50225 26.297L17.7778 30.1056C20 30.699 22.3289 30.3978 24.32 29.2464L27.3422 27.5104C29.3334 26.3679 30.7556 24.5167 31.3511 22.3024C31.9111 20.2387 31.6711 18.051 30.6845 16.1467L30.6756 16.1379ZM26.5422 26.1464L23.52 27.8824C21.8845 28.8213 19.9911 29.0693 18.1689 28.5821L3.90225 24.7824C3.48447 24.6673 3.23558 24.2421 3.35114 23.8259C3.60003 22.9047 4.4978 22.3024 5.4578 22.4176L13.3689 23.259C13.6622 23.2944 13.9467 23.1527 14.1067 22.9047C14.2667 22.6567 14.2756 22.3467 14.1245 22.0899L5.80447 7.74133C5.41336 7.05934 5.64447 6.19134 6.33781 5.79277C6.67558 5.59791 7.06669 5.55363 7.42225 5.65105C7.77781 5.74848 8.08892 5.96991 8.29336 6.31534L13.84 15.881C14.0534 16.253 14.5334 16.3859 14.9067 16.1645C15.0934 16.0582 15.2178 15.881 15.2711 15.6862C15.3245 15.4913 15.2978 15.2787 15.1911 15.0927L12.9245 11.1868C12.5334 10.5048 12.7645 9.63676 13.4578 9.23819C14.1511 8.83962 15.0134 9.07876 15.4045 9.76076L17.6711 13.6667C17.8845 14.0387 18.3645 14.1716 18.7378 13.9502C18.9245 13.8439 19.0489 13.6667 19.1022 13.4719C19.1556 13.277 19.1289 13.0645 19.0222 12.8785L17.8667 10.8856C17.4756 10.2036 17.7067 9.33562 18.4 8.93705C19.0756 8.54733 19.9556 8.77762 20.3467 9.45962L21.5111 11.4613C21.7334 11.8245 22.2045 11.9396 22.5689 11.727C22.9422 11.5145 23.0756 11.0362 22.8534 10.6642L22.8089 10.5845C22.6222 10.2568 22.5689 9.8759 22.6667 9.5039C22.7645 9.1319 23.0045 8.83076 23.3422 8.6359C24.0267 8.24619 24.8978 8.47648 25.2711 9.12304L29.2711 16.8465C30.0711 18.4053 30.2667 20.1856 29.8134 21.8773C29.3245 23.6841 28.16 25.1987 26.5334 26.1376L26.5422 26.1464Z" fill="#EC1111"/>
<path d="M14.0003 5.89893C13.5558 3.17094 11.538 0.956656 8.87138 0.23923C5.12027 -0.761624 1.24472 1.47037 0.240272 5.20807C-0.470839 7.86521 0.453605 10.7083 2.59583 12.4621C2.68472 12.5329 2.78249 12.5861 2.88916 12.6126C3.1736 12.6923 3.4936 12.5949 3.69805 12.3558C3.9736 12.0192 3.92027 11.5321 3.59138 11.2575C1.92027 9.89349 1.20027 7.67921 1.76027 5.6155C2.53361 2.70151 5.54694 0.965514 8.47138 1.74494C10.5425 2.29408 12.1069 4.03008 12.4536 6.14693C12.5247 6.57207 12.9247 6.86435 13.3514 6.7935C13.7781 6.72264 14.0714 6.32407 14.0003 5.89893Z" fill="#EC1111"/>
</g>
<defs>
<clipPath id="clip0_148_1703">
<rect width="32" height="31" fill="white"/>
</clipPath>
</defs>
</svg>
