<svg width="22" height="22" viewBox="0 0 22 22" fill="none" xmlns="http://www.w3.org/2000/svg">
<g clip-path="url(#clip0_148_1091)">
<path d="M12.5189 8.49079H10.3028V6.27144C10.3028 5.76094 9.89496 5.35254 9.3852 5.35254C8.87545 5.35254 8.46764 5.76094 8.46764 6.27144V8.49079H6.25155C5.74179 8.49079 5.33398 8.89919 5.33398 9.4097C5.33398 9.9202 5.74179 10.3286 6.25155 10.3286H8.46764V12.5479C8.46764 13.0585 8.87545 13.4669 9.3852 13.4669C9.89496 13.4669 10.3028 13.0585 10.3028 12.5479V10.3286H12.5189C13.0286 10.3286 13.4364 9.9202 13.4364 9.4097C13.4364 8.89919 13.0233 8.49079 12.5189 8.49079Z" fill="white"/>
<path d="M9.39561 16.9648C5.22634 16.9648 1.84585 13.5848 1.84585 9.40401C1.84585 5.22325 5.22098 1.84856 9.39561 1.84856C13.5702 1.84856 16.9454 5.234 16.9454 9.40938C16.9454 13.5848 13.5649 16.9702 9.39561 16.9702V16.9648ZM21.7317 20.4739L16.6449 15.3796C17.981 13.7567 18.7805 11.6717 18.7805 9.40938C18.7805 4.21299 14.579 0 9.39024 0C4.20146 0 0 4.21299 0 9.40938C0 14.6058 4.20146 18.8188 9.39561 18.8188C11.66 18.8188 13.7312 18.0181 15.3517 16.6854L20.4385 21.7797C20.6746 22.0161 21.3883 22.1343 21.7371 21.7797C22.0912 21.4196 22.0912 20.8393 21.7371 20.4792L21.7317 20.4739Z" fill="white"/>
</g>
<defs>
<clipPath id="clip0_148_1091">
<rect width="22" height="22" fill="white"/>
</clipPath>
</defs>
</svg>
