<svg width="139" height="24" viewBox="0 0 139 24" fill="none" xmlns="http://www.w3.org/2000/svg">
<g clip-path="url(#clip0_228_1475)">
<path d="M42.019 14.8902C42.019 16.7122 40.3103 18.0316 37.9056 18.0316H32.2734V6.72266H37.7157C40.0572 6.72266 41.7025 7.97921 41.7025 9.73836C41.7025 10.9321 41.0697 11.686 40.1204 12.1258C41.133 12.5028 42.019 13.508 42.019 14.8902ZM34.7414 8.79596V11.2462H37.6524C38.5384 11.2462 39.108 10.7436 39.108 10.0525C39.108 9.36141 38.4751 8.79596 37.6524 8.79596H34.7414ZM37.9056 15.9583C38.8548 15.9583 39.5509 15.3928 39.5509 14.5761C39.5509 13.7593 38.9181 13.1939 37.9056 13.1939H34.7414V15.9583H37.9056Z" fill="white"/>
<path d="M51.3219 17.9687L47.3985 13.508H46.7657V17.9687H44.2344V6.72266H46.7657V11.0577H47.3985L51.1955 6.72266H54.1699L49.4236 12.1258L54.6125 17.9687H51.3219Z" fill="white"/>
<path d="M54.6133 12.3762C54.6133 8.98345 57.145 6.5332 60.6885 6.5332C64.2325 6.5332 66.7637 8.98345 66.7637 12.3762C66.7637 15.7688 64.2325 18.2191 60.6885 18.2191C57.145 18.2191 54.6133 15.7688 54.6133 12.3762ZM64.1061 12.3762C64.1061 10.24 62.7136 8.795 60.6885 8.795C58.6634 8.795 57.2714 10.24 57.2714 12.3762C57.2714 14.5123 58.6634 15.9573 60.6885 15.9573C62.7136 15.9573 64.1061 14.5123 64.1061 12.3762Z" fill="white"/>
<path d="M76.4452 6.72266H78.9769V17.9687H76.4452V13.4452H71.3828V17.9687H68.8516V6.72266H71.3828V11.1834H76.4452V6.72266Z" fill="white"/>
<path d="M84.4179 17.9687V8.98441H80.4941V6.72266H90.8093V8.98441H86.8856V17.9687H84.4179Z" fill="white"/>
<path d="M101.694 11.6851V17.9678H99.8591L99.3529 16.2086C98.7833 17.151 97.5812 18.2191 95.746 18.2191C93.4676 18.2191 91.8223 16.7112 91.8223 14.6379C91.8223 12.5646 93.4676 11.1196 96.8217 11.1196H99.2895C99.1631 9.67455 98.4036 8.66935 97.0116 8.66935C95.8724 8.66935 95.1129 9.2976 94.7332 9.9887L92.4553 9.61175C93.0249 7.6641 94.9865 6.5332 97.138 6.5332C99.9225 6.5332 101.694 8.418 101.694 11.6851ZM99.2265 13.0673H96.8852C94.9865 13.0673 94.3535 13.6955 94.3535 14.5123C94.3535 15.4547 95.1129 16.083 96.3785 16.083C98.0239 16.083 99.2265 14.8893 99.2265 13.0673Z" fill="white"/>
<path d="M111.441 17.9687L107.518 13.508H106.885V17.9687H104.354V6.72266H106.885V11.0577H107.518L111.315 6.72266H114.289L109.543 12.1258L114.732 17.9687H111.441Z" fill="white"/>
<path d="M119.287 17.9687V8.98441H115.363V6.72266H125.678V8.98441H121.755V17.9687H119.287Z" fill="white"/>
<path d="M138.335 13.0673H129.222C129.475 14.8264 130.741 15.9573 132.639 15.9573C133.968 15.9573 134.981 15.3919 135.551 14.5751L137.892 14.9521C137.069 17.0882 134.854 18.2191 132.449 18.2191C129.032 18.2191 126.564 15.7688 126.564 12.3762C126.564 8.98345 129.032 6.5332 132.449 6.5332C135.867 6.5332 138.335 8.98345 138.335 12.2505C138.398 12.5646 138.335 12.816 138.335 13.0673ZM129.412 11.1196H135.677C135.234 9.7374 134.095 8.73215 132.513 8.73215C130.994 8.66935 129.792 9.67455 129.412 11.1196Z" fill="white"/>
<path d="M0 11.52C0 6.0894 0 3.37413 1.69929 1.68707C3.39858 0 6.13353 0 11.6035 0H12.5704C18.0404 0 20.7753 0 22.4746 1.68707C24.1739 3.37413 24.1739 6.0894 24.1739 11.52V12.48C24.1739 17.9106 24.1739 20.6259 22.4746 22.313C20.7753 24 18.0404 24 12.5704 24H11.6035C6.13353 24 3.39858 24 1.69929 22.313C0 20.6259 0 17.9106 0 12.48V11.52Z" fill="#0077FF"/>
<path d="M12.8632 17.2908C7.35358 17.2908 4.21102 13.5408 4.08008 7.30078H6.83993C6.93059 11.8808 8.96517 13.8208 10.5768 14.2208V7.30078H13.1756V11.2508C14.767 11.0808 16.4388 9.28078 17.0029 7.30078H19.6016C19.1685 9.74078 17.3555 11.5408 16.0662 12.2808C17.3555 12.8808 19.4204 14.4508 20.2061 17.2908H17.3454C16.731 15.3908 15.2001 13.9208 13.1756 13.7208V17.2908H12.8632Z" fill="white"/>
</g>
<defs>
<clipPath id="clip0_228_1475">
<rect width="139" height="24" fill="white"/>
</clipPath>
</defs>
</svg>
