<svg width="18" height="18" viewBox="0 0 18 18" fill="none" xmlns="http://www.w3.org/2000/svg">
<g opacity="0.5" clip-path="url(#clip0_148_1082)">
<path fill-rule="evenodd" clip-rule="evenodd" d="M15.0321 2.57023C13.3786 0.912558 11.1767 0 8.83256 0C4.00605 0 0.0753488 3.9307 0.0753488 8.7614C0.0753488 10.306 0.477209 11.813 1.24326 13.14L0 17.6819L4.64233 16.4637C5.92326 17.1628 7.36326 17.5312 8.82837 17.5312C13.6549 17.5312 17.5856 13.6005 17.5898 8.76977C17.5898 6.42977 16.6814 4.22791 15.0279 2.57023H15.0321ZM8.83674 16.0493C7.5307 16.0493 6.24977 15.6977 5.13209 15.0363L4.86837 14.8772L2.11395 15.6014L2.8507 12.914L2.67907 12.6377C1.9507 11.4781 1.56558 10.1386 1.56558 8.7614C1.56558 4.74698 4.83488 1.48186 8.8493 1.48186C10.7958 1.48186 12.6209 2.23954 13.9981 3.61674C15.3753 4.99395 16.1288 6.82326 16.1288 8.76977C16.1288 12.7842 12.8595 16.0535 8.84512 16.0535L8.83674 16.0493ZM12.8302 10.5949C12.6126 10.486 11.5367 9.95442 11.3358 9.88326C11.1349 9.81209 10.9884 9.77442 10.8419 9.99209C10.6953 10.2098 10.2767 10.7037 10.147 10.8502C10.0172 10.9967 9.89163 11.0135 9.67395 10.9047C9.45628 10.7958 8.74884 10.5656 7.91163 9.81628C7.26279 9.23442 6.82326 8.51861 6.69349 8.30093C6.56791 8.08326 6.69349 7.97442 6.78977 7.85302C7.02837 7.56 7.26279 7.25023 7.33814 7.10372C7.4093 6.95721 7.37581 6.83163 7.32139 6.7186C7.26698 6.60977 6.82744 5.52977 6.64744 5.09442C6.47163 4.66744 6.28744 4.72605 6.15349 4.71767C6.02791 4.7093 5.8814 4.7093 5.73488 4.7093C5.58837 4.7093 5.34977 4.76372 5.15302 4.9814C4.95209 5.19907 4.38698 5.7307 4.38698 6.80651C4.38698 7.88233 5.16977 8.92465 5.28279 9.07116C5.39581 9.21768 6.82744 11.4279 9.02093 12.3781C9.54419 12.6042 9.95023 12.7381 10.2684 12.8386C10.7916 13.006 11.2688 12.9809 11.6456 12.9265C12.0642 12.8637 12.9391 12.3949 13.1233 11.8842C13.3074 11.3735 13.3074 10.934 13.2488 10.8419C13.1944 10.7498 13.0479 10.6953 12.8302 10.5865V10.5949Z" fill="#464451"/>
</g>
<defs>
<clipPath id="clip0_148_1082">
<rect width="18" height="18" fill="white"/>
</clipPath>
</defs>
</svg>
